<svg width="151" height="130" viewBox="0 0 151 130" fill="none" xmlns="http://www.w3.org/2000/svg">
<g clip-path="url(#clip0_788_226)">
<path d="M62.8114 112.938L64.4606 107.569C62.4763 105.386 59.9888 103.72 57.2142 102.716C59.925 107.205 57.2983 113.062 58.3929 118.19C58.7465 119.787 59.4551 121.284 60.4662 122.57C61.4772 123.856 62.7647 124.898 64.2334 125.619L66.7361 128.719C68.0481 126.427 68.8476 123.878 69.0794 121.248C69.3113 118.618 68.97 115.969 68.0791 113.483C67.5654 112.094 66.8788 110.775 66.0354 109.557C64.5482 111.305 62.8114 112.938 62.8114 112.938Z" fill="#F2F2F2"/>
<path d="M53.7429 113.624L52.8236 108.083C50.0736 107.014 47.1039 106.632 44.1726 106.97C48.6017 109.78 48.8635 116.193 52.1312 120.295C53.1601 121.566 54.4622 122.59 55.9408 123.29C57.4194 123.991 59.0367 124.349 60.6728 124.34L64.2958 125.999C64.4478 123.363 64.0263 120.725 63.0604 118.268C62.0946 115.81 60.6072 113.591 58.7009 111.764C57.6213 110.749 56.4182 109.874 55.12 109.16C54.5686 111.388 53.7429 113.624 53.7429 113.624Z" fill="#F2F2F2"/>
<path d="M107.721 127.341L105.18 127.34L103.972 117.545L107.721 117.545L107.721 127.341Z" fill="#FFB6B6"/>
<path d="M108.368 129.802L100.177 129.802V129.698C100.177 128.853 100.513 128.042 101.111 127.445C101.709 126.847 102.52 126.511 103.365 126.511H103.366L104.862 125.376L107.654 126.511L108.369 126.511L108.368 129.802Z" fill="#2F2E41"/>
<path d="M148.757 118.078L147.025 119.935L139.033 114.141L141.589 111.399L148.757 118.078Z" fill="#FFB6B6"/>
<path d="M151 119.282L145.415 125.272L145.339 125.202C144.721 124.625 144.357 123.827 144.327 122.982C144.297 122.137 144.604 121.316 145.181 120.697L145.371 118.829L148.104 117.561L148.592 117.039L151 119.282Z" fill="#2F2E41"/>
<path d="M144.998 112.573L142.313 118.187L125.825 107.273L123.426 104.006L115.561 93.2937L112.364 98.365L110.139 103.666C109.414 104.139 108.804 104.767 108.351 105.504C107.898 106.242 107.615 107.071 107.522 107.931L107.42 108.869L108.825 121.502L103.483 123.142L100.414 106.172L101.417 102.494L102.45 97.3326L107.649 81.021H121.563L129.543 98.002L130.127 101.462L132.39 104.058L144.998 112.573Z" fill="#2F2E41"/>
<path d="M116.082 54.3337L118.425 56.1167L121.249 56.9844C121.249 56.9844 122.417 73.4051 123.469 74.4569C124.522 75.5088 123.573 75.5371 123.784 76.9035C123.995 78.2699 124.509 81.0709 124.509 81.0709C117.407 84.8293 111.284 84.9302 106.365 80.5322C106.303 80.2601 106.335 79.9748 106.456 79.7234C106.578 79.472 106.782 79.2696 107.034 79.1499C107.949 78.6644 106.19 76.3981 106.938 76.0192C107.686 75.6403 106.634 72.3532 106.634 72.3532L107.324 65.495L106.779 64.3987L108.11 57.6906L110.419 56.8476L111.341 54.6258L116.082 54.3337Z" fill="#3F3D56"/>
<path d="M117.55 83.5187C117.539 83.2221 117.594 82.9269 117.71 82.6537C117.826 82.3806 118.001 82.1362 118.221 81.9378C118.442 81.7393 118.703 81.5917 118.987 81.5052C119.271 81.4188 119.571 81.3956 119.865 81.4373L123.166 75.0234L125.005 78.2899L121.588 83.8798C121.485 84.3687 121.206 84.8029 120.805 85.1001C120.403 85.3972 119.906 85.5368 119.409 85.4923C118.911 85.4478 118.447 85.2223 118.104 84.8585C117.761 84.4948 117.564 84.018 117.55 83.5187Z" fill="#FFB6B6"/>
<path d="M123.109 81.9498L130.189 70.9802L130.166 70.9298C130.139 70.8719 128.536 67.4105 126.982 64.24C126.743 63.7517 126.505 63.2704 126.274 62.8094C126.174 62.6105 126.076 62.4157 125.979 62.2251C125.327 60.9392 124.757 59.8764 124.416 59.3715C123.664 58.2301 122.543 57.3803 121.241 56.9633L121.208 56.9548L121.177 56.9679C120.54 57.2366 120.013 57.7143 119.684 58.3223C119.355 58.9303 119.243 59.6322 119.367 60.3123C119.981 63.5927 121.349 66.6855 123.364 69.3466L124.512 70.859L120.523 79.5279L123.109 81.9498Z" fill="#3F3D56"/>
<path d="M98.7628 39.9018C98.9578 40.1256 99.1013 40.3894 99.1832 40.6746C99.2652 40.9598 99.2836 41.2595 99.2371 41.5525C99.1907 41.8456 99.0805 42.125 98.9144 42.3709C98.7482 42.6168 98.5302 42.8233 98.2756 42.9758L99.7515 50.0363L96.2653 48.6565L95.3982 42.1633C95.1702 41.7187 95.1132 41.206 95.2381 40.7223C95.3629 40.2385 95.661 39.8174 96.0757 39.5386C96.4904 39.2599 96.993 39.1429 97.4883 39.2098C97.9835 39.2768 98.437 39.523 98.7628 39.9018Z" fill="#FFB6B6"/>
<path d="M95.4326 44.6201L96.8424 57.5985L96.8923 57.623C96.9335 57.6432 98.7196 58.5189 100.912 59.5619C101.282 59.7378 101.229 60.5 101.615 60.6821C101.882 60.8076 102.585 60.3523 102.854 60.4781C105.25 61.5984 107.673 62.6877 108.639 62.9829C109.943 63.3958 111.349 63.3506 112.623 62.8547L112.654 62.8406L112.67 62.8108C112.995 62.201 113.104 61.4985 112.976 60.8191C112.849 60.1397 112.494 59.5239 111.969 59.0734C109.426 56.9116 106.415 55.3704 103.173 54.5714L101.329 54.119L98.9668 44.8738L95.4326 44.6201Z" fill="#3F3D56"/>
<path d="M113.585 53.5983C116.144 53.5983 118.218 51.5247 118.218 48.9669C118.218 46.409 116.144 44.3354 113.585 44.3354C111.027 44.3354 108.952 46.409 108.952 48.9669C108.952 51.5247 111.027 53.5983 113.585 53.5983Z" fill="#FFB6B6"/>
<path d="M108.985 45.8635C109.366 44.7554 111.263 43.9869 114.338 43.88C117.413 43.7731 118.192 47.3954 118.192 47.3954C120.245 49.06 116.001 53.5164 115.795 53.3559L115.888 52.5186C116.041 51.1318 116.69 50.0497 115.864 48.6043L115.071 48.6134C114.046 48.8104 113.021 49.0074 111.997 49.2043L113.21 48.1366L113.176 48.0837C112.66 48.3524 112.098 48.5228 111.52 48.5863C110.868 48.6246 110.155 48.3653 109.843 47.7918C109.76 47.6342 109.709 47.4615 109.693 47.2839C108.814 47.635 108.412 48.7185 108.412 48.7185C108.412 48.7185 108.604 46.9715 108.985 45.8635Z" fill="#2F2E41"/>
<path d="M18.6662 46.1413C18.6033 46.0616 18.5356 45.9859 18.4635 45.9145C18.4811 45.8902 18.4988 45.8638 18.5164 45.8396L18.6662 46.1413Z" fill="#2F2E41"/>
<path d="M19.5672 64.7686C18.8094 66.1143 17.2959 66.8653 15.7956 67.2331C14.1104 67.6743 12.3359 67.64 10.669 67.134C10.4575 67.0657 10.246 66.9864 10.0412 66.8983C10.1397 66.6368 10.2177 66.368 10.2747 66.0945C10.3514 65.7242 10.3898 65.3471 10.3892 64.9691C10.2223 65.2947 10.0061 65.5926 9.74814 65.8522C9.54919 66.0612 9.32321 66.2426 9.07621 66.3918C8.31007 65.9269 7.64668 65.311 7.1265 64.5815C7.15954 64.5 7.1926 64.4185 7.22344 64.337C7.38341 63.9114 7.5101 63.474 7.60236 63.0288C7.72753 62.4268 7.79029 61.8135 7.78963 61.1987C7.51799 61.7285 7.1657 62.2129 6.74535 62.6346C6.61933 62.7694 6.48546 62.8966 6.34441 63.0156C6.12599 62.3525 6.04155 61.6525 6.09601 60.9565C6.15047 60.2605 6.34273 59.5822 6.66164 58.9611C7.53406 57.349 9.22602 56.391 10.7329 55.3493C12.242 54.3076 13.7511 52.8981 13.8789 51.0679C13.9648 49.8324 13.392 48.5947 13.6211 47.379C13.7175 46.8664 13.9528 46.39 14.3013 46.0018C14.6498 45.6135 15.0982 45.3284 15.5976 45.1773C16.097 45.0262 16.6284 45.0151 17.1337 45.1451C17.639 45.2751 18.099 45.5412 18.4635 45.9144C17.6087 47.1257 16.7583 48.3789 16.4124 49.8192C16.0599 51.286 16.3486 53.006 17.5052 53.9772C17.9017 54.312 18.3886 54.5498 18.6948 54.9682C19.1024 55.5232 19.1046 56.2632 19.1707 56.946C19.3029 58.274 19.7369 59.5513 19.9704 60.8661C20.2061 62.1787 20.2193 63.6036 19.5672 64.7686Z" fill="#2F2E41"/>
<path d="M4.03149 119.383L6.04221 120.936L12.9912 113.922L10.0236 111.63L4.03149 119.383Z" fill="#A0616A"/>
<path d="M4.11708 117.866L7.44204 120.131L6.38982 121.492L7.79901 125.913C7.86864 126.131 7.86663 126.366 7.79329 126.583C7.71995 126.8 7.57911 126.988 7.39133 127.12C7.20355 127.251 6.97867 127.319 6.74951 127.314C6.52036 127.308 6.29893 127.23 6.11755 127.09L2.33359 124.167L2.72217 122.316L1.4267 123.466L0 122.364L4.11708 117.866Z" fill="#2F2E41"/>
<path d="M14.2325 50.054C14.2323 50.8394 14.4248 51.6127 14.7933 52.3063C15.1618 52.9999 15.695 53.5924 16.3461 54.0319C16.9971 54.4714 17.7461 54.7444 18.5274 54.8269C19.3086 54.9095 20.0982 54.799 20.8267 54.5053C21.5553 54.2116 22.2006 53.7436 22.706 53.1424C23.2114 52.5412 23.5615 51.8251 23.7254 51.0571C23.8894 50.2891 23.8622 49.4925 23.6464 48.7374C23.4305 47.9823 23.0325 47.2918 22.4873 46.7263L22.4643 46.7033C22.4259 46.663 22.3875 46.6227 22.3472 46.5843L22.3464 46.5842L22.3458 46.5838L22.3454 46.5831L22.3453 46.5824C22.2953 46.5364 22.2454 46.4903 22.1936 46.4462C21.3489 45.7054 20.1617 44.9014 18.9504 44.9014C16.2993 44.9014 14.2325 47.4038 14.2325 50.054Z" fill="#2F2E41"/>
<path d="M41.5878 47.5903C41.6107 47.8462 41.5773 48.104 41.4898 48.3456C41.4023 48.5872 41.2629 48.8066 41.0814 48.9885C40.8999 49.1704 40.6807 49.3103 40.4393 49.3984C40.1979 49.4864 39.9401 49.5205 39.684 49.4982L27.7998 60.2248L25.7546 56.9958L38.0796 47.4672C38.1456 47.0397 38.3662 46.6513 38.6996 46.3756C39.0329 46.0998 39.4559 45.9559 39.8883 45.9711C40.3208 45.9862 40.7326 46.1594 41.0458 46.4579C41.359 46.7563 41.5519 47.1593 41.5878 47.5903Z" fill="#A0616A"/>
<path d="M22.7206 63.4626C22.7206 63.4626 23.1628 64.279 24.6732 63.0184C25.8824 62.0092 31.6757 57.6279 32.9237 55.8325C33.2087 55.9454 33.5232 55.9603 33.8176 55.8748C34.1119 55.7894 34.3695 55.6084 34.5497 55.3605L31.1301 52.3667C30.107 52.4844 30.1289 53.1715 30.2354 53.5616L27.656 54.7299L20.995 58.9853L22.3905 62.8782L22.7206 63.4626Z" fill="#1D8DAD"/>
<path d="M16.2676 70.9842L16.0185 72.17L15.807 76.5439L25.1189 77.0556L24.8297 70.3282L23.9271 68.8457L16.2676 70.9842Z" fill="#A0616A"/>
<path d="M20.2142 55.1873C22.4368 55.1873 24.2386 53.3861 24.2386 51.1642C24.2386 48.9423 22.4368 47.1411 20.2142 47.1411C17.9916 47.1411 16.1898 48.9423 16.1898 51.1642C16.1898 53.3861 17.9916 55.1873 20.2142 55.1873Z" fill="#A0616A"/>
<path d="M13.0693 66.0031L13.0446 62.6589C13.044 61.4557 13.4513 60.2877 14.2001 59.3456C14.9489 58.4035 15.9949 57.7429 17.1675 57.4714L17.1827 57.4679L17.9785 56.396L21.2116 56.7193L21.8042 57.93L24.1469 59.3245L25.0489 62.2232C25.4402 62.4838 25.7736 62.8222 26.0285 63.2171C26.2834 63.612 26.4544 64.0552 26.5307 64.5189C26.837 66.4744 25.4674 68.4309 25.3045 68.6553L24.8847 71.0185L15.7533 72.6291L15.6792 72.6385L13.0693 66.0031Z" fill="#1D8DAD"/>
<path d="M25.1388 50.4469C24.6694 50.7441 24.1824 51.0126 23.6804 51.2507C23.1709 51.4954 22.638 51.688 22.0898 51.8256C21.9329 51.4815 21.741 51.1546 21.517 50.8499C21.5746 51.2109 21.5761 51.5786 21.5214 51.9401C20.6127 52.0866 19.682 52.0103 18.8094 51.7177L18.0515 50.4469L17.9943 51.8652C17.3664 51.9797 16.7407 52.0876 16.1128 52.2C16.0754 52.2044 16.0379 52.2132 16.0027 52.2198C15.6127 50.4623 16.1657 48.5265 17.395 47.3548C18.0054 46.7792 18.7668 46.3887 19.5905 46.2289C20.4142 46.069 21.2664 46.1463 22.0479 46.4519C22.1471 46.4915 22.2484 46.5356 22.3453 46.5818L22.3455 46.5827L22.346 46.5834L22.3467 46.5839L22.3475 46.584C22.4048 46.6126 22.4533 46.6809 22.5172 46.6743C25.2666 46.3682 25.3547 48.5 25.1388 50.4469Z" fill="#2F2E41"/>
<path d="M18.4438 114.196L20.4577 115.745L27.3926 108.717L24.4204 106.431L18.4438 114.196Z" fill="#A0616A"/>
<path d="M18.7089 112.818L22.0385 115.077L20.989 116.441L22.4071 120.858C22.4772 121.076 22.4756 121.311 22.4027 121.528C22.3298 121.746 22.1894 121.934 22.0019 122.066C21.8144 122.197 21.5896 122.266 21.3604 122.261C21.1313 122.256 20.9097 122.178 20.728 122.038L16.9382 119.123L17.323 117.272L16.0299 118.424L14.601 117.325L18.7089 112.818Z" fill="#2F2E41"/>
<path d="M11.9091 105.618L11.909 105.592L12.8634 103.948L11.8888 101.808L11.8596 96.3091L12.0176 95.4837C12.23 94.3735 12.1682 93.2282 11.8375 92.1474L11.8197 88.8004C11.7854 87.9619 13.0847 87.2245 12.7817 86.5255C9.91775 79.9185 15.7063 74.8782 15.7454 74.8378L15.8637 74.7148L16.5055 75.2008L17.1164 75.2016L25.36 76.7032L25.4195 76.8141C25.7437 77.4221 26.3695 79.5176 26.4066 80.4659C26.8174 80.9413 31.4973 86.3549 31.9133 86.731C34.7246 89.2738 36.3341 93.4824 37.0433 95.7649C37.2194 96.329 37.2549 96.9275 37.1467 97.5085C37.0385 98.0894 36.7898 98.6351 36.4224 99.098L25.7798 110.751L22.9158 108.108L28.6744 97.6184L28.2592 96.5541C27.5141 96.4167 26.8398 96.0251 26.3514 95.4461L25.1853 94.0625C24.8624 93.6804 24.6573 93.213 24.5947 92.7169L23.8875 92.6318L21.3545 89.9732L19.5971 105.883L19.1193 107.139L10.799 116.918L7.27405 114.715L11.9091 105.618Z" fill="#2F2E41"/>
<path d="M10.6384 37.3053C10.4786 37.5065 10.3648 37.7402 10.3051 37.9901C10.2454 38.24 10.2412 38.5 10.2929 38.7516C10.3445 39.0033 10.4507 39.2406 10.6041 39.4468C10.7574 39.653 10.9541 39.8231 11.1803 39.9451L8.53455 47.775L10.6949 56.0727L14.1785 54.4984L12.0289 48.2396L13.6371 39.1296C13.817 38.7361 13.8461 38.2904 13.7192 37.8769C13.5922 37.4634 13.318 37.1108 12.9483 36.8859C12.5787 36.6611 12.1394 36.5796 11.7137 36.6569C11.2879 36.7342 10.9053 36.9649 10.6384 37.3053Z" fill="#A0616A"/>
<path d="M13.8272 62.9095C13.8272 62.9095 13.009 63.3487 12.4399 61.4658C11.9844 59.9583 8.88417 51.7737 8.8283 49.5881C8.52815 49.5259 8.25725 49.3656 8.05826 49.1325C7.85928 48.8994 7.74353 48.6067 7.72925 48.3006L12.232 47.6777C13.0221 48.3381 12.6261 48.9002 12.3226 49.1676L13.8562 51.7644L17.0617 58.7749L14.4242 62.6025L13.8272 62.9095Z" fill="#1D8DAD"/>
<path d="M16.1119 52.1995C16.5743 50.8055 17.4035 49.5616 18.5124 48.5983C19.6213 47.6349 20.9691 46.9877 22.4144 46.7244C22.4201 46.7225 22.4393 46.7148 22.4643 46.7033C22.4796 46.6937 22.4988 46.6841 22.518 46.6745C22.4604 46.6419 22.4048 46.6131 22.3472 46.5843L22.3464 46.5841L22.3458 46.5837L22.3454 46.5831L22.3453 46.5824C22.2954 46.5363 22.2454 46.4902 22.1936 46.4461L22.0477 46.4519C22.0477 46.4519 16.9201 45.6401 16.1119 52.1995Z" fill="#FD6584"/>
<path d="M82.276 97.0306C82.8356 96.1897 82.5044 94.986 81.5361 94.3421C80.5679 93.6982 79.3294 93.8578 78.7698 94.6987C78.2101 95.5395 78.5414 96.7432 79.5096 97.3872C80.4778 98.0311 81.7164 97.8715 82.276 97.0306Z" fill="#F2F2F2"/>
<path d="M70.916 65.6463C71.4756 64.8054 71.1444 63.6018 70.1762 62.9578C69.2079 62.3139 67.9694 62.4735 67.4098 63.3144C66.8502 64.1552 67.1814 65.3589 68.1496 66.0029C69.1178 66.6468 70.3564 66.4872 70.916 65.6463Z" fill="#F2F2F2"/>
<path d="M118.421 113.961C118.981 113.121 118.65 111.917 117.681 111.273C116.713 110.629 115.475 110.789 114.915 111.63C114.355 112.47 114.687 113.674 115.655 114.318C116.623 114.962 117.862 114.802 118.421 113.961Z" fill="#F2F2F2"/>
<path d="M22.378 12.995C22.9376 12.1541 22.6064 10.9504 21.6382 10.3065C20.67 9.66252 19.4314 9.82216 18.8718 10.663C18.3122 11.5039 18.6434 12.7076 19.6116 13.3515C20.5798 13.9955 21.8184 13.8358 22.378 12.995Z" fill="#F2F2F2"/>
<path d="M67.1982 3.08406C67.7578 2.24319 67.4266 1.03952 66.4584 0.395574C65.4902 -0.24837 64.2516 -0.0887369 63.692 0.752128C63.1324 1.59299 63.4636 2.79668 64.4318 3.44062C65.4 4.08457 66.6386 3.92492 67.1982 3.08406Z" fill="#F2F2F2"/>
<path d="M45.9861 86.2349C46.5457 85.3941 46.2144 84.1904 45.2462 83.5465C44.278 82.9025 43.0394 83.0622 42.4798 83.903C41.9202 84.7439 42.2515 85.9476 43.2197 86.5915C44.1879 87.2354 45.4264 87.0758 45.9861 86.2349Z" fill="#E6E6E6"/>
<path d="M138.44 130H4.12534C4.06024 130 3.99787 129.974 3.95191 129.928C3.90594 129.882 3.88013 129.819 3.88013 129.754C3.88013 129.689 3.90594 129.627 3.95191 129.581C3.99787 129.534 4.06024 129.508 4.12534 129.508H138.44C138.505 129.508 138.568 129.534 138.614 129.58C138.66 129.626 138.686 129.689 138.686 129.754C138.686 129.819 138.66 129.882 138.614 129.928C138.568 129.974 138.505 130 138.44 130Z" fill="#CCCCCC"/>
<path d="M29.1246 48.3487C27.9948 48.3454 26.9058 47.926 26.0658 47.1707C25.2258 46.4153 24.6938 45.377 24.5713 44.2542L21.9492 19.9093C21.8204 18.7005 22.1764 17.4901 22.9393 16.5435C23.7021 15.5968 24.8094 14.9914 26.0183 14.8599L103.876 6.47948C105.085 6.35064 106.296 6.70654 107.243 7.46911C108.19 8.23168 108.796 9.33863 108.927 10.5471L111.55 34.8919C111.678 36.1007 111.322 37.3112 110.559 38.2578C109.797 39.2045 108.689 39.81 107.48 39.9415L29.6225 48.3219C29.4571 48.3397 29.2909 48.3487 29.1246 48.3487Z" fill="#E6E6E6"/>
<path d="M103.018 7.60963C102.872 7.60968 102.726 7.61755 102.581 7.63322L27.5298 15.7115C27.0051 15.768 26.4966 15.9272 26.0333 16.1802C25.5701 16.4331 25.1613 16.7748 24.8302 17.1857C24.4991 17.5966 24.2522 18.0686 24.1035 18.5749C23.9549 19.0812 23.9075 19.6118 23.964 20.1364L25.2898 32.4454C25.5041 34.4353 26.1084 36.3635 27.0682 38.12C28.0279 39.8764 29.3243 41.4267 30.8834 42.6823C32.4425 43.9378 34.2337 44.8741 36.1548 45.4377C38.0759 46.0012 40.0892 46.181 42.0797 45.9667L94.8529 40.2863C96.8374 40.0727 98.7604 39.4705 100.512 38.5139C102.264 37.5574 103.81 36.2654 105.062 34.7115C106.314 33.1577 107.248 31.3725 107.81 29.4579C108.372 27.5434 108.551 25.5369 108.338 23.553L107.007 11.1978C106.901 10.2137 106.435 9.30333 105.699 8.64119C104.963 7.97905 104.009 7.61173 103.018 7.60963Z" fill="white"/>
<path d="M87.2139 20.4197L45.2671 24.9348C45.1471 24.9479 45.0258 24.9372 44.91 24.9033C44.7942 24.8695 44.6862 24.8132 44.5922 24.7376C44.4982 24.662 44.42 24.5686 44.3621 24.4627C44.3043 24.3569 44.2678 24.2407 44.2549 24.1208C44.242 24.0009 44.2528 23.8796 44.2869 23.7639C44.3209 23.6482 44.3774 23.5403 44.4531 23.4464C44.5289 23.3525 44.6224 23.2745 44.7283 23.2168C44.8343 23.1591 44.9506 23.1228 45.0705 23.1101L87.0174 18.595C87.1373 18.5819 87.2586 18.5926 87.3744 18.6265C87.4902 18.6603 87.5982 18.7166 87.6922 18.7923C87.7862 18.8679 87.8644 18.9612 87.9223 19.0671C87.9802 19.1729 88.0166 19.2891 88.0295 19.409C88.0424 19.5289 88.0316 19.6502 87.9976 19.7659C87.9636 19.8816 87.9071 19.9895 87.8313 20.0834C87.7556 20.1773 87.662 20.2553 87.5561 20.313C87.4502 20.3707 87.3339 20.407 87.2139 20.4197Z" fill="#1D8DAD"/>
<path d="M87.8172 26.02L45.8703 30.535C45.6283 30.5611 45.3858 30.4899 45.1962 30.3373C45.0066 30.1846 44.8855 29.9629 44.8594 29.7209C44.8333 29.4789 44.9045 29.2365 45.0572 29.047C45.21 28.8575 45.4317 28.7363 45.6738 28.7103L87.6206 24.1952C87.8627 24.1692 88.1052 24.2403 88.2948 24.393C88.4844 24.5457 88.6055 24.7674 88.6316 25.0093C88.6576 25.2513 88.5865 25.4937 88.4338 25.6833C88.281 25.8728 88.0592 25.9939 87.8172 26.02Z" fill="#1D8DAD"/>
<path d="M51.3618 35.6089L46.4735 36.1351C46.2314 36.1612 45.9889 36.09 45.7994 35.9374C45.6098 35.7847 45.4886 35.563 45.4626 35.321C45.4365 35.079 45.5077 34.8366 45.6604 34.6471C45.8131 34.4575 46.0349 34.3364 46.277 34.3104L51.1652 33.7842C51.2852 33.7711 51.4065 33.7818 51.5223 33.8157C51.6381 33.8495 51.7461 33.9059 51.8401 33.9815C51.9341 34.0571 52.0123 34.1504 52.0702 34.2563C52.1281 34.3621 52.1645 34.4783 52.1774 34.5982C52.1903 34.7181 52.1795 34.8394 52.1455 34.9551C52.1114 35.0708 52.0549 35.1787 51.9792 35.2726C51.9034 35.3665 51.8099 35.4445 51.704 35.5022C51.598 35.5599 51.4818 35.5962 51.3618 35.6089Z" fill="#1D8DAD"/>
<path d="M27.4741 20.9367C28.3867 20.9367 29.1265 20.1971 29.1265 19.2849C29.1265 18.3726 28.3867 17.6331 27.4741 17.6331C26.5616 17.6331 25.8218 18.3726 25.8218 19.2849C25.8218 20.1971 26.5616 20.9367 27.4741 20.9367Z" fill="#3F3D56"/>
<path d="M101.417 12.6776C102.33 12.6776 103.069 11.9381 103.069 11.0258C103.069 10.1136 102.33 9.37402 101.417 9.37402C100.505 9.37402 99.7648 10.1136 99.7648 11.0258C99.7648 11.9381 100.505 12.6776 101.417 12.6776Z" fill="#3F3D56"/>
<path d="M79.0779 46.5884C78.926 46.4551 78.8058 46.2897 78.7259 46.1041C78.646 45.9186 78.6084 45.7175 78.616 45.5156C78.699 43.1164 78.3037 40.7247 77.4532 38.4797C77.3811 38.2909 77.3519 38.0885 77.3679 37.8871C77.3838 37.6857 77.4445 37.4904 77.5453 37.3154C77.6421 37.1471 77.7744 37.0021 77.9332 36.8905C78.0919 36.7788 78.2732 36.7033 78.4642 36.6691C80.3848 35.5106 82.3536 35.1853 84.3173 35.7026C84.6339 35.656 84.9568 35.7237 85.228 35.8937C85.4991 36.0636 85.7008 36.3247 85.7968 36.6299C86.5918 39.21 87.034 41.8857 87.1114 44.5844C87.1188 44.9081 87.0092 45.2237 86.8025 45.4731C86.5959 45.7225 86.3062 45.889 85.9866 45.942L80.1758 46.9017C79.981 46.9343 79.7814 46.9231 79.5915 46.8689C79.4016 46.8147 79.2261 46.7189 79.0779 46.5884Z" fill="#1D8DAD"/>
<path d="M79.594 39.5982L84.4848 38.7904C84.525 38.7839 84.5635 38.7695 84.5981 38.748C84.6328 38.7266 84.6628 38.6985 84.6866 38.6654C84.7104 38.6323 84.7274 38.5949 84.7367 38.5552C84.7459 38.5156 84.7473 38.4745 84.7406 38.4343C84.734 38.3941 84.7195 38.3556 84.6979 38.321C84.6764 38.2865 84.6483 38.2565 84.6151 38.2328C84.582 38.2091 84.5445 38.1922 84.5048 38.183C84.4651 38.1738 84.4239 38.1726 84.3838 38.1793L79.493 38.987C79.4121 39.0006 79.3398 39.0457 79.2921 39.1124C79.2444 39.1791 79.2251 39.2621 79.2385 39.343C79.2519 39.4239 79.2968 39.4962 79.3635 39.5441C79.4301 39.5919 79.513 39.6114 79.594 39.5982Z" fill="white"/>
<path d="M79.998 42.0426L84.8888 41.2349C84.9698 41.2215 85.0423 41.1765 85.0901 41.1097C85.138 41.0429 85.1573 40.9599 85.1439 40.8789C85.1305 40.7978 85.0855 40.7254 85.0187 40.6776C84.9519 40.6297 84.8688 40.6104 84.7878 40.6238L79.897 41.4315C79.8568 41.4381 79.8182 41.4525 79.7836 41.4739C79.749 41.4954 79.7189 41.5234 79.6951 41.5565C79.6714 41.5896 79.6544 41.6271 79.6451 41.6667C79.6358 41.7064 79.6345 41.7475 79.6411 41.7877C79.6477 41.8279 79.6623 41.8663 79.6838 41.9009C79.7053 41.9355 79.7335 41.9655 79.7666 41.9892C79.7998 42.0129 79.8373 42.0298 79.877 42.0389C79.9167 42.0481 79.9578 42.0494 79.998 42.0426Z" fill="white"/>
<path d="M80.4021 44.4872L85.2928 43.6795C85.3739 43.6661 85.4463 43.6211 85.4942 43.5543C85.542 43.4875 85.5614 43.4045 85.548 43.3234C85.5346 43.2424 85.4896 43.17 85.4228 43.1222C85.356 43.0743 85.2729 43.055 85.1918 43.0684L80.3011 43.8761C80.2609 43.8827 80.2225 43.8972 80.1879 43.9187C80.1534 43.9401 80.1234 43.9682 80.0997 44.0013C80.076 44.0343 80.0591 44.0717 80.0498 44.1114C80.0406 44.151 80.0393 44.192 80.0459 44.2321C80.0525 44.2723 80.067 44.3107 80.0885 44.3452C80.11 44.3798 80.1381 44.4097 80.1711 44.4334C80.2042 44.4571 80.2416 44.4741 80.2812 44.4833C80.3209 44.4925 80.3619 44.4939 80.4021 44.4872Z" fill="white"/>
</g>
<defs>
<clipPath id="clip0_788_226">
<rect width="151" height="130" fill="white"/>
</clipPath>
</defs>
</svg>
