<svg width="39" height="39" viewBox="0 0 39 39" fill="none" xmlns="http://www.w3.org/2000/svg">
<g clip-path="url(#clip0_520_5)">
<path d="M9.7045 36.2132C9.3493 36.2131 9.00392 36.0966 8.72121 35.8816C8.4385 35.6665 8.23404 35.3648 8.13912 35.0225C8.04419 34.6802 8.06403 34.3162 8.1956 33.9863C8.32717 33.6564 8.56322 33.3786 8.86763 33.1956C14.625 29.7376 14.625 22.3113 14.625 17.8751C14.625 16.5822 15.1386 15.3422 16.0529 14.4279C16.9671 13.5137 18.2071 13.0001 19.5 13.0001C20.7929 13.0001 22.0329 13.5137 22.9471 14.4279C23.8614 15.3422 24.375 16.5822 24.375 17.8751C24.375 18.3061 24.2038 18.7194 23.899 19.0241C23.5943 19.3289 23.181 19.5001 22.75 19.5001C22.319 19.5001 21.9057 19.3289 21.601 19.0241C21.2962 18.7194 21.125 18.3061 21.125 17.8751C21.125 17.4441 20.9538 17.0308 20.649 16.726C20.3443 16.4213 19.931 16.2501 19.5 16.2501C19.069 16.2501 18.6557 16.4213 18.351 16.726C18.0462 17.0308 17.875 17.4441 17.875 17.8751C17.875 22.664 17.875 31.5803 10.5398 35.9825C10.2874 36.1336 9.99867 36.2133 9.7045 36.2132ZM17.7694 38.5223C21.4776 34.7848 23.6438 29.5296 24.206 22.8882C24.225 22.6752 24.2017 22.4605 24.1375 22.2564C24.0733 22.0524 23.9694 21.8631 23.8319 21.6993C23.6944 21.5355 23.5258 21.4004 23.336 21.3019C23.1462 21.2034 22.9387 21.1433 22.7256 21.1251C22.5124 21.1032 22.2969 21.1245 22.0921 21.1876C21.8872 21.2508 21.6972 21.3545 21.5333 21.4927C21.3694 21.6308 21.235 21.8005 21.138 21.9917C21.0411 22.1829 20.9836 22.3916 20.969 22.6055C20.4636 28.5481 18.6631 33.0055 15.4635 36.2246C15.1597 36.5304 14.9897 36.9443 14.9911 37.3754C14.9925 37.8064 15.165 38.2193 15.4708 38.5231C15.7766 38.827 16.1905 38.9969 16.6216 38.9955C17.0527 38.9942 17.4655 38.8216 17.7694 38.5158V38.5223ZM26.2194 38.2201C27.2051 36.5823 28.0259 34.8508 28.6699 33.051C28.8045 32.6484 28.7763 32.2092 28.5913 31.8272C28.4062 31.4452 28.0791 31.1508 27.6798 31.0068C27.2805 30.8629 26.8407 30.8809 26.4545 31.057C26.0684 31.2331 25.7664 31.5534 25.6133 31.9492C25.0411 33.5451 24.3128 35.0806 23.439 36.5333C23.3282 36.7159 23.2545 36.9185 23.2221 37.1295C23.1896 37.3406 23.199 37.556 23.2498 37.7634C23.3006 37.9708 23.3917 38.1661 23.518 38.3383C23.6443 38.5105 23.8033 38.6561 23.9858 38.7669C24.3545 38.9906 24.797 39.0586 25.2158 38.9561C25.4233 38.9053 25.6186 38.8142 25.7908 38.6879C25.963 38.5616 26.1086 38.4026 26.2194 38.2201ZM30.0625 27.9355C30.6645 24.617 30.9367 21.2471 30.875 17.8751C30.8735 15.5729 30.1734 13.3255 28.8674 11.4296C27.5614 9.53378 25.7109 8.07885 23.5604 7.25708C21.4099 6.43531 19.0607 6.28539 16.8232 6.82713C14.5857 7.36887 12.5653 8.57677 11.0289 10.2912C10.8792 10.4488 10.7628 10.6349 10.6863 10.8383C10.6098 11.0418 10.575 11.2585 10.5838 11.4757C10.5926 11.6928 10.6448 11.906 10.7375 12.1026C10.8301 12.2992 10.9612 12.4753 11.1231 12.6203C11.285 12.7653 11.4743 12.8764 11.6799 12.9469C11.8854 13.0175 12.1031 13.0461 12.3199 13.0311C12.5367 13.016 12.7483 12.9576 12.9422 12.8594C13.136 12.7611 13.3082 12.6249 13.4485 12.459C14.5458 11.2342 15.989 10.3712 17.5872 9.98403C19.1855 9.59689 20.8636 9.70384 22.3997 10.2907C23.9359 10.8776 25.2578 11.9168 26.1908 13.271C27.1238 14.6252 27.6239 16.2306 27.625 17.8751C27.6849 21.0386 27.4335 24.2004 26.8743 27.3147C26.7922 27.7375 26.8813 28.1755 27.122 28.5326C27.3627 28.8897 27.7353 29.1367 28.158 29.2192C28.2613 29.2399 28.3663 29.2502 28.4716 29.2501C28.848 29.2491 29.2124 29.1175 29.5025 28.8777C29.7927 28.638 29.9906 28.3049 30.0625 27.9355ZM11.375 17.8751C11.3745 17.4215 11.412 16.9687 11.4871 16.5215C11.5356 16.3061 11.5398 16.0832 11.4993 15.8662C11.4588 15.6492 11.3746 15.4427 11.2516 15.2594C11.1287 15.076 10.9698 14.9197 10.7844 14.7998C10.5991 14.6799 10.3913 14.599 10.1736 14.5621C9.95602 14.5252 9.73316 14.533 9.51865 14.5851C9.30415 14.6371 9.1025 14.7323 8.926 14.8649C8.74951 14.9975 8.60187 15.1646 8.49209 15.3561C8.38232 15.5476 8.3127 15.7594 8.2875 15.9787C8.18023 16.6052 8.12587 17.2395 8.125 17.8751C8.125 25.4232 5.93775 29.2501 1.625 29.2501C1.19402 29.2501 0.780698 29.4213 0.475952 29.726C0.171205 30.0308 0 30.4441 0 30.8751C0 31.3061 0.171205 31.7194 0.475952 32.0241C0.780698 32.3289 1.19402 32.5001 1.625 32.5001C7.91213 32.5001 11.375 27.3001 11.375 17.8751ZM33.6375 38.0478C36.3117 31.6683 37.5863 24.7893 37.375 17.8751C37.3825 15.1758 36.771 12.5108 35.5875 10.0848C35.4941 9.89278 35.3639 9.72099 35.2041 9.57928C35.0444 9.43756 34.8583 9.32871 34.6564 9.25892C34.4546 9.18913 34.241 9.15978 34.0279 9.17253C33.8147 9.18529 33.6061 9.23991 33.4141 9.33327C33.222 9.42663 33.0502 9.55691 32.9085 9.71666C32.7668 9.87641 32.6579 10.0625 32.5882 10.2643C32.5184 10.4662 32.489 10.6798 32.5018 10.8929C32.5145 11.1061 32.5691 11.3147 32.6625 11.5067C33.6294 13.4901 34.1297 15.6685 34.125 17.8751C34.3296 24.3243 33.1556 30.743 30.6816 36.7023C30.5935 36.8969 30.5447 37.107 30.5379 37.3205C30.531 37.534 30.5664 37.7467 30.6418 37.9465C30.7173 38.1464 30.8314 38.3294 30.9776 38.485C31.1239 38.6407 31.2994 38.766 31.4941 38.8538C31.7046 38.9506 31.9336 39.0005 32.1653 39.0001C32.476 38.9988 32.7799 38.9083 33.0408 38.7396C33.3018 38.5708 33.5089 38.3307 33.6375 38.0478ZM4.875 22.7501V17.8751C4.8793 13.9976 6.42153 10.2802 9.16331 7.5384C11.9051 4.79661 15.6225 3.25438 19.5 3.25008C22.6661 3.23954 25.7484 4.26698 28.275 6.17508C28.6198 6.43367 29.0532 6.5447 29.4798 6.48375C29.9065 6.4228 30.2914 6.19486 30.55 5.85008C30.8086 5.5053 30.9196 5.07192 30.8587 4.64527C30.7977 4.21863 30.5698 3.83367 30.225 3.57508C27.1365 1.24389 23.3695 -0.0117566 19.5 8.29635e-05C14.761 0.00567373 10.2176 1.89072 6.86664 5.24172C3.51564 8.59273 1.63059 13.1361 1.625 17.8751V22.7501C1.625 23.1811 1.7962 23.5944 2.10095 23.8991C2.4057 24.2039 2.81902 24.3751 3.25 24.3751C3.68098 24.3751 4.0943 24.2039 4.39905 23.8991C4.7038 23.5944 4.875 23.1811 4.875 22.7501Z" fill="#1D8DAD"/>
</g>
<defs>
<clipPath id="clip0_520_5">
<rect width="39" height="39" fill="white"/>
</clipPath>
</defs>
</svg>
