<svg width="67" height="67" viewBox="0 0 67 67" fill="none" xmlns="http://www.w3.org/2000/svg">
<rect width="67" height="67" rx="8" fill="#D9D9D9"/>
<path d="M42.5349 29.9029C42.5141 29.9029 42.483 29.9029 42.4518 29.9029C36.9549 29.3321 31.4684 29.1167 26.0339 29.6875L23.9141 29.9029C23.4776 29.946 23.0932 29.6229 23.0516 29.1705C23.0101 28.7181 23.3218 28.3304 23.7478 28.2873L25.8676 28.0719C31.3957 27.4903 36.9965 27.7164 42.6076 28.2873C43.0337 28.3304 43.3454 28.7289 43.3038 29.1705C43.2727 29.5906 42.9298 29.9029 42.5349 29.9029Z" fill="#292D32"/>
<path d="M29.5471 28.8146C29.5056 28.8146 29.464 28.8146 29.4121 28.8038C28.9964 28.7284 28.7055 28.3084 28.7782 27.8775L29.0068 26.4665C29.1731 25.4325 29.4017 24 31.8227 24H34.5452C36.9767 24 37.2053 25.4864 37.3612 26.4773L37.5898 27.8775C37.6625 28.3191 37.3716 28.7392 36.9559 28.8038C36.5299 28.8792 36.1247 28.5776 36.0623 28.1468L35.8337 26.7466C35.6882 25.8095 35.6571 25.6264 34.5556 25.6264H31.8331C30.7317 25.6264 30.7109 25.7772 30.5551 26.7358L30.3161 28.136C30.2537 28.5346 29.9212 28.8146 29.5471 28.8146Z" fill="#292D32"/>
<path d="M36.5192 47.158H29.8481C26.2216 47.158 26.0762 45.0792 25.9619 43.3989L25.2864 32.5526C25.2553 32.111 25.5878 31.7232 26.0138 31.6909C26.4502 31.6694 26.8139 32.0033 26.8451 32.4449L27.5205 43.2912C27.6348 44.9284 27.6764 45.5423 29.8481 45.5423H36.5192C38.7013 45.5423 38.7429 44.9284 38.8468 43.2912L39.5222 32.4449C39.5534 32.0033 39.9275 31.6694 40.3535 31.6909C40.7795 31.7232 41.1121 32.1002 41.0809 32.5526L40.4055 43.3989C40.2912 45.0792 40.1457 47.158 36.5192 47.158Z" fill="#292D32"/>
<path d="M34.9084 41.2338H31.4481C31.0221 41.2338 30.6688 40.8676 30.6688 40.426C30.6688 39.9844 31.0221 39.6182 31.4481 39.6182H34.9084C35.3344 39.6182 35.6877 39.9844 35.6877 40.426C35.6877 40.8676 35.3344 41.2338 34.9084 41.2338Z" fill="#292D32"/>
<path d="M35.7811 36.9252H30.5856C30.1595 36.9252 29.8062 36.559 29.8062 36.1174C29.8062 35.6758 30.1595 35.3096 30.5856 35.3096H35.7811C36.2071 35.3096 36.5604 35.6758 36.5604 36.1174C36.5604 36.559 36.2071 36.9252 35.7811 36.9252Z" fill="#292D32"/>
</svg>
