<svg width="20" height="20" viewBox="0 0 20 20" fill="none" xmlns="http://www.w3.org/2000/svg">
<g clip-path="url(#clip0_276_537)">
<path d="M16.2792 2.60167L14.8992 1.22C14.5131 0.831928 14.0538 0.524284 13.548 0.314871C13.0422 0.105459 12.4999 -0.00156192 11.9525 1.62907e-06H6.66667C5.562 0.00132484 4.50296 0.440737 3.72185 1.22185C2.94073 2.00297 2.50132 3.06201 2.5 4.16667V15.8333C2.50132 16.938 2.94073 17.997 3.72185 18.7782C4.50296 19.5593 5.562 19.9987 6.66667 20H13.3333C14.438 19.9987 15.497 19.5593 16.2782 18.7782C17.0593 17.997 17.4987 16.938 17.5 15.8333V5.5475C17.5013 5.00015 17.3941 4.45797 17.1846 3.95233C16.975 3.44668 16.6673 2.98761 16.2792 2.60167ZM15.1008 3.78C15.219 3.89777 15.3249 4.02733 15.4167 4.16667H13.3333V2.08334C13.4724 2.1761 13.6022 2.28215 13.7208 2.4L15.1008 3.78ZM15.8333 15.8333C15.8333 16.4964 15.5699 17.1323 15.1011 17.6011C14.6323 18.0699 13.9964 18.3333 13.3333 18.3333H6.66667C6.00363 18.3333 5.36774 18.0699 4.8989 17.6011C4.43006 17.1323 4.16667 16.4964 4.16667 15.8333V4.16667C4.16667 3.50363 4.43006 2.86774 4.8989 2.3989C5.36774 1.93006 6.00363 1.66667 6.66667 1.66667H11.6667V4.16667C11.6667 4.6087 11.8423 5.03262 12.1548 5.34518C12.4674 5.65774 12.8913 5.83333 13.3333 5.83333H15.8333V15.8333ZM13.3333 7.5C13.5543 7.5 13.7663 7.5878 13.9226 7.74408C14.0789 7.90036 14.1667 8.11232 14.1667 8.33333C14.1667 8.55435 14.0789 8.76631 13.9226 8.92259C13.7663 9.07887 13.5543 9.16667 13.3333 9.16667H6.66667C6.44565 9.16667 6.23369 9.07887 6.07741 8.92259C5.92113 8.76631 5.83333 8.55435 5.83333 8.33333C5.83333 8.11232 5.92113 7.90036 6.07741 7.74408C6.23369 7.5878 6.44565 7.5 6.66667 7.5H13.3333ZM14.1667 11.6667C14.1667 11.8877 14.0789 12.0996 13.9226 12.2559C13.7663 12.4122 13.5543 12.5 13.3333 12.5H6.66667C6.44565 12.5 6.23369 12.4122 6.07741 12.2559C5.92113 12.0996 5.83333 11.8877 5.83333 11.6667C5.83333 11.4457 5.92113 11.2337 6.07741 11.0774C6.23369 10.9211 6.44565 10.8333 6.66667 10.8333H13.3333C13.5543 10.8333 13.7663 10.9211 13.9226 11.0774C14.0789 11.2337 14.1667 11.4457 14.1667 11.6667ZM14.0067 14.5108C14.1362 14.689 14.1899 14.9113 14.156 15.129C14.1221 15.3467 14.0034 15.5421 13.8258 15.6725C12.9815 16.2741 11.9815 16.6193 10.9458 16.6667C10.3407 16.6638 9.75402 16.4584 9.27917 16.0833C9.00583 15.8958 8.90167 15.8333 8.69583 15.8333C8.13869 15.9195 7.61301 16.1474 7.16917 16.495C6.99312 16.6205 6.7752 16.6727 6.56141 16.6405C6.34762 16.6083 6.15471 16.4943 6.0234 16.3226C5.8921 16.1508 5.83269 15.9347 5.85771 15.72C5.88273 15.5052 5.99023 15.3086 6.1575 15.1717C6.89182 14.6016 7.77357 14.253 8.69917 14.1667C9.25428 14.1755 9.79094 14.3674 10.2258 14.7125C10.4241 14.8908 10.6793 14.9927 10.9458 15C11.6272 14.949 12.2825 14.7162 12.8433 14.3258C13.0222 14.1962 13.2452 14.1429 13.4633 14.1776C13.6814 14.2123 13.8769 14.3321 14.0067 14.5108Z" fill="black"/>
</g>
<defs>
<clipPath id="clip0_276_537">
<rect width="20" height="20" fill="white"/>
</clipPath>
</defs>
</svg>
