<svg width="20" height="20" viewBox="0 0 20 20" fill="none" xmlns="http://www.w3.org/2000/svg">
<g opacity="0.4" clip-path="url(#clip0_276_543)">
<path d="M15 0H6.66671C5.8569 0.00106531 5.06496 0.238088 4.38772 0.682083C3.71048 1.12608 3.1773 1.7578 2.85337 2.5H1.66671C1.44569 2.5 1.23373 2.5878 1.07745 2.74408C0.921171 2.90036 0.833374 3.11232 0.833374 3.33333C0.833374 3.55435 0.921171 3.76631 1.07745 3.92259C1.23373 4.07887 1.44569 4.16667 1.66671 4.16667H2.50004V5.83333H1.66671C1.44569 5.83333 1.23373 5.92113 1.07745 6.07741C0.921171 6.23369 0.833374 6.44565 0.833374 6.66667C0.833374 6.88768 0.921171 7.09964 1.07745 7.25592C1.23373 7.4122 1.44569 7.5 1.66671 7.5H2.50004V9.16667H1.66671C1.44569 9.16667 1.23373 9.25446 1.07745 9.41074C0.921171 9.56702 0.833374 9.77899 0.833374 10C0.833374 10.221 0.921171 10.433 1.07745 10.5893C1.23373 10.7455 1.44569 10.8333 1.66671 10.8333H2.50004V12.5H1.66671C1.44569 12.5 1.23373 12.5878 1.07745 12.7441C0.921171 12.9004 0.833374 13.1123 0.833374 13.3333C0.833374 13.5543 0.921171 13.7663 1.07745 13.9226C1.23373 14.0789 1.44569 14.1667 1.66671 14.1667H2.50004V15.8333H1.66671C1.44569 15.8333 1.23373 15.9211 1.07745 16.0774C0.921171 16.2337 0.833374 16.4457 0.833374 16.6667C0.833374 16.8877 0.921171 17.0996 1.07745 17.2559C1.23373 17.4122 1.44569 17.5 1.66671 17.5H2.85337C3.1773 18.2422 3.71048 18.8739 4.38772 19.3179C5.06496 19.7619 5.8569 19.9989 6.66671 20H15C16.1047 19.9987 17.1637 19.5593 17.9449 18.7782C18.726 17.997 19.1654 16.938 19.1667 15.8333V4.16667C19.1654 3.062 18.726 2.00296 17.9449 1.22185C17.1637 0.440735 16.1047 0.00132321 15 0ZM17.5 15.8333C17.5 16.4964 17.2367 17.1323 16.7678 17.6011C16.299 18.0699 15.6631 18.3333 15 18.3333H6.66671C6.00367 18.3333 5.36778 18.0699 4.89894 17.6011C4.4301 17.1323 4.16671 16.4964 4.16671 15.8333V4.16667C4.16671 3.50363 4.4301 2.86774 4.89894 2.3989C5.36778 1.93006 6.00367 1.66667 6.66671 1.66667H15C15.6631 1.66667 16.299 1.93006 16.7678 2.3989C17.2367 2.86774 17.5 3.50363 17.5 4.16667V15.8333ZM10.8334 10C11.4964 10 12.1323 9.73661 12.6011 9.26777C13.07 8.79893 13.3334 8.16304 13.3334 7.5C13.3334 6.83696 13.07 6.20107 12.6011 5.73223C12.1323 5.26339 11.4964 5 10.8334 5C10.1703 5 9.53445 5.26339 9.06561 5.73223C8.59677 6.20107 8.33337 6.83696 8.33337 7.5C8.33337 8.16304 8.59677 8.79893 9.06561 9.26777C9.53445 9.73661 10.1703 10 10.8334 10ZM15 15C15 15.221 14.9122 15.433 14.756 15.5893C14.5997 15.7455 14.3877 15.8333 14.1667 15.8333C13.9457 15.8333 13.7337 15.7455 13.5775 15.5893C13.4212 15.433 13.3334 15.221 13.3334 15C13.3334 14.337 13.07 13.7011 12.6011 13.2322C12.1323 12.7634 11.4964 12.5 10.8334 12.5C10.1703 12.5 9.53445 12.7634 9.06561 13.2322C8.59677 13.7011 8.33337 14.337 8.33337 15C8.33337 15.221 8.24558 15.433 8.0893 15.5893C7.93302 15.7455 7.72105 15.8333 7.50004 15.8333C7.27903 15.8333 7.06707 15.7455 6.91079 15.5893C6.75451 15.433 6.66671 15.221 6.66671 15C6.84254 9.49333 14.8259 9.495 15 15Z" fill="black"/>
</g>
<defs>
<clipPath id="clip0_276_543">
<rect width="20" height="20" fill="white"/>
</clipPath>
</defs>
</svg>
