<svg width="12" height="12" viewBox="0 0 12 12" fill="none" xmlns="http://www.w3.org/2000/svg">
<g clip-path="url(#clip0_261_723)">
<path d="M5.98557 11.9612C5.77376 11.9612 5.55981 11.8854 5.38929 11.7316L4.10845 10.6377H3.66667C2.58696 10.6377 1.70874 9.74709 1.70874 8.65214V5.40304C1.70874 4.30809 2.58696 3.41748 3.66667 3.41748H8.2945C9.37385 3.41748 10.2524 4.30809 10.2524 5.40304V8.65214C10.2524 9.74709 9.37385 10.6377 8.2945 10.6377H7.87764L6.55764 11.7442C6.39816 11.8882 6.19311 11.9612 5.98593 11.9612H5.98557ZM3.66667 4.50051C3.17612 4.50051 2.7767 4.90556 2.7767 5.40304V8.65214C2.7767 9.14961 3.17612 9.55467 3.66667 9.55467H4.30353C4.42955 9.55467 4.5513 9.59979 4.64741 9.6821L5.98201 10.8222L7.34508 9.67885C7.4412 9.59871 7.56117 9.55467 7.68541 9.55467H8.2945C8.78541 9.55467 9.18447 9.14961 9.18447 8.65214V5.40304C9.18447 4.90556 8.78541 4.50051 8.2945 4.50051H3.66667Z" fill="white"/>
</g>
<defs>
<clipPath id="clip0_261_723">
<rect width="11.9612" height="11.9612" fill="white"/>
</clipPath>
</defs>
</svg>
