<svg width="26" height="26" viewBox="0 0 26 26" fill="none" xmlns="http://www.w3.org/2000/svg">
<g clip-path="url(#clip0_1066_45)">
<path d="M21.6125 6.00167L17.8317 2.22083C16.4017 0.790833 14.495 0 12.4692 0H7.58332C4.59332 0 2.16666 2.42667 2.16666 5.41667V20.5833C2.16666 23.5733 4.59332 26 7.58332 26H18.4167C21.4067 26 23.8333 23.5733 23.8333 20.5833V11.3642C23.8333 9.33833 23.0425 7.43167 21.6125 6.00167ZM20.085 7.52917C20.4317 7.87583 20.7242 8.255 20.9625 8.66667H16.2608C15.665 8.66667 15.1775 8.17917 15.1775 7.58333V2.88167C15.5892 3.12 15.9683 3.4125 16.315 3.75917L20.0958 7.54L20.085 7.52917ZM21.6667 20.5833C21.6667 22.3708 20.2042 23.8333 18.4167 23.8333H7.58332C5.79582 23.8333 4.33332 22.3708 4.33332 20.5833V5.41667C4.33332 3.62917 5.79582 2.16667 7.58332 2.16667H12.4692C12.6425 2.16667 12.8267 2.16667 13 2.18833V7.58333C13 9.37083 14.4625 10.8333 16.25 10.8333H21.645C21.6667 11.0067 21.6667 11.18 21.6667 11.3642V20.5833ZM7.68082 14.0833H6.49999C5.90416 14.0833 5.41666 14.5708 5.41666 15.1667V19.9767C5.41666 20.3558 5.71999 20.6483 6.08832 20.6483C6.45666 20.6483 6.75999 20.345 6.75999 19.9767V18.655H7.66999C8.94832 18.655 9.98832 17.6258 9.98832 16.3692C9.98832 15.1125 8.94832 14.0833 7.66999 14.0833H7.68082ZM7.68082 17.3008H6.78166V15.4375H7.69166C8.21166 15.4375 8.65582 15.86 8.65582 16.3692C8.65582 16.8783 8.21166 17.3008 7.69166 17.3008H7.68082ZM20.605 14.7658C20.605 15.145 20.3017 15.4375 19.9333 15.4375H18.1025V16.6725H19.4458C19.825 16.6725 20.1175 16.9758 20.1175 17.3442C20.1175 17.7125 19.8142 18.0158 19.4458 18.0158H18.1025V19.9658C18.1025 20.345 17.7992 20.6375 17.4308 20.6375C17.0625 20.6375 16.7592 20.3342 16.7592 19.9658V14.755C16.7592 14.3758 17.0625 14.0833 17.4308 14.0833H19.9333C20.3125 14.0833 20.605 14.3867 20.605 14.755V14.7658ZM13.0975 14.0942H11.9167C11.3208 14.0942 10.8333 14.5817 10.8333 15.1775V19.9875C10.8333 20.3667 11.1367 20.5942 11.505 20.5942C11.8733 20.5942 13.0867 20.5942 13.0867 20.5942C14.365 20.5942 15.405 19.565 15.405 18.3083V16.38C15.405 15.1233 14.365 14.0942 13.0867 14.0942H13.0975ZM14.0617 18.3083C14.0617 18.8175 13.6175 19.24 13.0975 19.24H12.1983V15.4483H13.1083C13.6283 15.4483 14.0725 15.8708 14.0725 16.38V18.3083H14.0617Z" fill="black"/>
</g>
<defs>
<clipPath id="clip0_1066_45">
<rect width="26" height="26" fill="white"/>
</clipPath>
</defs>
</svg>
