<svg width="25" height="25" viewBox="0 0 25 25" fill="none" xmlns="http://www.w3.org/2000/svg">
<path d="M19.7917 24.0955H5.20833C2.33646 24.0955 0 21.8525 0 19.0955V9.81946C0 8.15446 0.858333 6.60446 2.29583 5.67446L9.58646 0.950458C11.3562 -0.195542 13.6437 -0.195542 15.4135 0.950458L22.7052 5.67446C24.1417 6.60446 25 8.15346 25 9.81946V19.0955C25 21.8525 22.6635 24.0955 19.7917 24.0955ZM12.5 2.09246C11.8917 2.09246 11.2833 2.26446 10.7521 2.60946L3.46042 7.33246C2.59792 7.89046 2.08333 8.81946 2.08333 9.81846V19.0945C2.08333 20.7485 3.48542 22.0945 5.20833 22.0945H19.7917C21.5146 22.0945 22.9167 20.7485 22.9167 19.0945V9.81946C22.9167 8.82046 22.4021 7.89046 21.5406 7.33346L14.2479 2.60946C13.7167 2.26446 13.1083 2.09246 12.5 2.09246Z" fill="#B9B8B9"/>
</svg>
