<svg width="13" height="13" viewBox="0 0 13 13" fill="none" xmlns="http://www.w3.org/2000/svg">
<g clip-path="url(#clip0_248_2168)">
<path d="M3.79167 13H2.16667C1.59203 13 1.04093 12.7717 0.634602 12.3654C0.228273 11.9591 0 11.408 0 10.8333L0 9.20833C0 8.6337 0.228273 8.0826 0.634602 7.67627C1.04093 7.26994 1.59203 7.04167 2.16667 7.04167H3.79167C4.3663 7.04167 4.9174 7.26994 5.32373 7.67627C5.73006 8.0826 5.95833 8.6337 5.95833 9.20833V10.8333C5.95833 11.408 5.73006 11.9591 5.32373 12.3654C4.9174 12.7717 4.3663 13 3.79167 13ZM4.875 9.20833C4.875 8.92101 4.76086 8.64546 4.5577 8.4423C4.35454 8.23914 4.07899 8.125 3.79167 8.125H2.16667C1.87935 8.125 1.6038 8.23914 1.40063 8.4423C1.19747 8.64546 1.08333 8.92101 1.08333 9.20833V10.8333C1.08333 11.1207 1.19747 11.3962 1.40063 11.5994C1.6038 11.8025 1.87935 11.9167 2.16667 11.9167H3.79167C4.07899 11.9167 4.35454 11.8025 4.5577 11.5994C4.76086 11.3962 4.875 11.1207 4.875 10.8333V9.20833Z" fill="#ACACAC"/>
<path d="M10.8333 13H9.20832C8.63369 13 8.08259 12.7717 7.67626 12.3654C7.26993 11.9591 7.04166 11.408 7.04166 10.8333V9.20833C7.04166 8.6337 7.26993 8.0826 7.67626 7.67627C8.08259 7.26994 8.63369 7.04167 9.20832 7.04167H10.8333C11.408 7.04167 11.9591 7.26994 12.3654 7.67627C12.7717 8.0826 13 8.6337 13 9.20833V10.8333C13 11.408 12.7717 11.9591 12.3654 12.3654C11.9591 12.7717 11.408 13 10.8333 13ZM11.9167 9.20833C11.9167 8.92101 11.8025 8.64546 11.5994 8.4423C11.3962 8.23914 11.1206 8.125 10.8333 8.125H9.20832C8.92101 8.125 8.64546 8.23914 8.44229 8.4423C8.23913 8.64546 8.12499 8.92101 8.12499 9.20833V10.8333C8.12499 11.1207 8.23913 11.3962 8.44229 11.5994C8.64546 11.8025 8.92101 11.9167 9.20832 11.9167H10.8333C11.1206 11.9167 11.3962 11.8025 11.5994 11.5994C11.8025 11.3962 11.9167 11.1207 11.9167 10.8333V9.20833Z" fill="#ACACAC"/>
<path d="M3.79167 5.95834H2.16667C1.59203 5.95834 1.04093 5.73007 0.634602 5.32374C0.228273 4.91741 0 4.36631 0 3.79168L0 2.16668C0 1.59204 0.228273 1.04094 0.634602 0.634612C1.04093 0.228283 1.59203 9.53674e-06 2.16667 9.53674e-06H3.79167C4.3663 9.53674e-06 4.9174 0.228283 5.32373 0.634612C5.73006 1.04094 5.95833 1.59204 5.95833 2.16668V3.79168C5.95833 4.36631 5.73006 4.91741 5.32373 5.32374C4.9174 5.73007 4.3663 5.95834 3.79167 5.95834ZM4.875 2.16668C4.875 1.87936 4.76086 1.60381 4.5577 1.40064C4.35454 1.19748 4.07899 1.08334 3.79167 1.08334H2.16667C1.87935 1.08334 1.6038 1.19748 1.40063 1.40064C1.19747 1.60381 1.08333 1.87936 1.08333 2.16668V3.79168C1.08333 4.07899 1.19747 4.35454 1.40063 4.55771C1.6038 4.76087 1.87935 4.87501 2.16667 4.87501H3.79167C4.07899 4.87501 4.35454 4.76087 4.5577 4.55771C4.76086 4.35454 4.875 4.07899 4.875 3.79168V2.16668Z" fill="#ACACAC"/>
<path d="M10.8333 5.95834H9.20832C8.63369 5.95834 8.08259 5.73007 7.67626 5.32374C7.26993 4.91741 7.04166 4.36631 7.04166 3.79168V2.16668C7.04166 1.59204 7.26993 1.04094 7.67626 0.634612C8.08259 0.228283 8.63369 9.53674e-06 9.20832 9.53674e-06H10.8333C11.408 9.53674e-06 11.9591 0.228283 12.3654 0.634612C12.7717 1.04094 13 1.59204 13 2.16668V3.79168C13 4.36631 12.7717 4.91741 12.3654 5.32374C11.9591 5.73007 11.408 5.95834 10.8333 5.95834ZM11.9167 2.16668C11.9167 1.87936 11.8025 1.60381 11.5994 1.40064C11.3962 1.19748 11.1206 1.08334 10.8333 1.08334H9.20832C8.92101 1.08334 8.64546 1.19748 8.44229 1.40064C8.23913 1.60381 8.12499 1.87936 8.12499 2.16668V3.79168C8.12499 4.07899 8.23913 4.35454 8.44229 4.55771C8.64546 4.76087 8.92101 4.87501 9.20832 4.87501H10.8333C11.1206 4.87501 11.3962 4.76087 11.5994 4.55771C11.8025 4.35454 11.9167 4.07899 11.9167 3.79168V2.16668Z" fill="#ACACAC"/>
</g>
<defs>
<clipPath id="clip0_248_2168">
<rect width="13" height="13" fill="white" transform="matrix(1 0 0 -1 0 13)"/>
</clipPath>
</defs>
</svg>
