<svg width="12" height="12" viewBox="0 0 12 12" fill="none" xmlns="http://www.w3.org/2000/svg">
<path d="M10.7246 3.45721C10.7131 3.45721 10.696 3.45721 10.6788 3.45721C7.65365 3.18498 4.63419 3.08225 1.64331 3.35448L0.476696 3.45721C0.236512 3.47776 0.0249207 3.32366 0.00204596 3.10793C-0.0208287 2.89219 0.150732 2.70728 0.385197 2.68673L1.55181 2.584C4.59416 2.30663 7.67652 2.4145 10.7646 2.68673C10.9991 2.70728 11.1706 2.89733 11.1478 3.10793C11.1306 3.30825 10.9419 3.45721 10.7246 3.45721Z" fill="#292D32"/>
<path d="M3.57682 2.93843C3.55394 2.93843 3.53107 2.93843 3.50247 2.93329C3.27373 2.89734 3.1136 2.69701 3.15363 2.49155L3.27945 1.81866C3.37094 1.32556 3.49675 0.642399 4.82918 0.642399H6.32748C7.66565 0.642399 7.79146 1.35124 7.87724 1.8238L8.00305 2.49155C8.04308 2.70215 7.88296 2.90247 7.65421 2.93329C7.41974 2.96925 7.19671 2.82543 7.1624 2.61996L7.03659 1.95221C6.95653 1.50534 6.93937 1.41802 6.33319 1.41802H4.8349C4.22875 1.41802 4.21731 1.48993 4.13153 1.94708L4 2.61483C3.96569 2.80488 3.78269 2.93843 3.57682 2.93843Z" fill="#292D32"/>
<path d="M7.41387 11.686H3.74248C1.74666 11.686 1.6666 10.6946 1.60369 9.89335L1.23198 4.72084C1.21482 4.51025 1.39782 4.32534 1.63229 4.30993C1.87247 4.29965 2.07263 4.45889 2.08978 4.66948L2.46149 9.84198C2.5244 10.6227 2.54728 10.9155 3.74248 10.9155H7.41387C8.61479 10.9155 8.63767 10.6227 8.69485 9.84198L9.06657 4.66948C9.08373 4.45889 9.2896 4.29965 9.52406 4.30993C9.75853 4.32534 9.94153 4.50511 9.92437 4.72084L9.55266 9.89335C9.48975 10.6946 9.40969 11.686 7.41387 11.686Z" fill="#292D32"/>
<path d="M6.52729 8.86086H4.62297C4.3885 8.86086 4.19406 8.68622 4.19406 8.47562C4.19406 8.26502 4.3885 8.09038 4.62297 8.09038H6.52729C6.76176 8.09038 6.95619 8.26502 6.95619 8.47562C6.95619 8.68622 6.76176 8.86086 6.52729 8.86086Z" fill="#292D32"/>
<path d="M7.0076 6.80624H4.14826C3.9138 6.80624 3.71936 6.6316 3.71936 6.421C3.71936 6.2104 3.9138 6.03576 4.14826 6.03576H7.0076C7.24206 6.03576 7.4365 6.2104 7.4365 6.421C7.4365 6.6316 7.24206 6.80624 7.0076 6.80624Z" fill="#292D32"/>
</svg>
