<svg width="9" height="8" viewBox="0 0 9 8" fill="none" xmlns="http://www.w3.org/2000/svg">
<g clip-path="url(#clip0_261_638)">
<path d="M7.87521 4H4.50808L3.73783 3.02167C3.39845 2.59067 2.84233 2.33333 2.25058 2.33333H2.06308C1.33933 2.33333 0.75058 2.85667 0.75058 3.5V4.06133C0.315205 4.19933 0.000579834 4.566 0.000579834 5V6.33333C0.000579834 7.25233 0.841705 8 1.87558 8H7.12558C8.15945 8 9.00058 7.25233 9.00058 6.33333V5C9.00058 4.44867 8.49545 4 7.87521 4ZM3.3752 4.66667V7.33333H2.6252V4.66667H3.3752ZM4.1252 4.66667H4.8752V7.33333H4.1252V4.66667ZM5.6252 4.66667H6.37521V7.33333H5.6252V4.66667ZM2.0627 3H2.2502C2.59745 3 2.9237 3.151 3.1232 3.404L3.5927 4H1.5002V3.5C1.5002 3.22433 1.75258 3 2.0627 3ZM0.750205 6.33333V5C0.750205 4.81633 0.91858 4.66667 1.1252 4.66667H1.8752V7.33333C1.25495 7.33333 0.750205 6.88467 0.750205 6.33333ZM8.25021 6.33333C8.25021 6.88467 7.74546 7.33333 7.12521 7.33333V4.66667H7.87521C8.08183 4.66667 8.25021 4.81633 8.25021 5V6.33333ZM1.1252 0.833333C1.1252 0.373 1.54483 0 2.0627 0C2.58058 0 3.0002 0.373 3.0002 0.833333C3.0002 1.29367 2.58058 1.66667 2.0627 1.66667C1.54483 1.66667 1.1252 1.29367 1.1252 0.833333ZM7.12521 0.390667V0.334333C7.12445 0.150333 7.29171 0.000666667 7.49908 0H7.50021C7.70683 0 7.87483 0.148667 7.87521 0.332333V0.389667C7.87521 0.602333 7.97196 0.81 8.14071 0.959667C8.45308 1.23733 8.62558 1.60667 8.62558 2C8.62558 2.184 8.45758 2.33333 8.25058 2.33333C8.04358 2.33333 7.87558 2.184 7.87558 2C7.87558 1.785 7.78146 1.583 7.61046 1.431C7.29771 1.153 7.12558 0.783667 7.12558 0.390333L7.12521 0.390667ZM6.11008 1.662C5.79733 1.384 5.6252 1.01467 5.6252 0.621333V0.333333C5.6252 0.149333 5.7932 0 6.0002 0C6.2072 0 6.37521 0.149333 6.37521 0.333333V0.621333C6.37521 0.833 6.47196 1.04067 6.64033 1.19033C6.95271 1.468 7.12521 1.83733 7.12521 2.23067V2.33333C7.12521 2.51733 6.9572 2.66667 6.75021 2.66667C6.54321 2.66667 6.37521 2.51733 6.37521 2.33333V2.23067C6.37521 2.01567 6.28108 1.814 6.11008 1.662Z" fill="#1D8DAD"/>
</g>
<defs>
<clipPath id="clip0_261_638">
<rect width="9" height="8" fill="white"/>
</clipPath>
</defs>
</svg>
