<svg width="11" height="16" viewBox="0 0 11 16" fill="none" xmlns="http://www.w3.org/2000/svg">
<path opacity="0.4" d="M5.37739 0C3.37592 0 1.74878 1.62714 1.74878 3.62861C1.74878 5.59188 3.28425 7.18083 5.28572 7.24958C5.34683 7.24194 5.40795 7.24194 5.45378 7.24958H5.49198H5.50725C7.46288 7.18083 8.99836 5.59188 9.006 3.62861C9.006 1.62714 7.37885 0 5.37739 0Z" fill="#1D8DAD"/>
<path d="M9.25865 9.28152C7.12732 7.86063 3.65153 7.86063 1.50492 9.28152C0.534743 9.93085 0 10.8094 0 11.749C0 12.6886 0.534742 13.5595 1.49728 14.2011C2.56676 14.9192 3.97234 15.2783 5.37795 15.2783C6.78356 15.2783 8.18917 14.9192 9.25865 14.2011C10.2212 13.5518 10.7559 12.6809 10.7559 11.7337C10.7483 10.7941 10.2212 9.92321 9.25865 9.28152Z" fill="#1D8DAD"/>
</svg>
