<svg width="9" height="10" viewBox="0 0 9 10" fill="none" xmlns="http://www.w3.org/2000/svg">
<path d="M4.48384 5.71213C3.69254 5.71213 3.04614 5.08117 3.04614 4.30067C3.04614 3.52018 3.69254 2.89287 4.48384 2.89287C5.27513 2.89287 5.92153 3.52383 5.92153 4.30431C5.92153 5.08481 5.27513 5.71213 4.48384 5.71213ZM4.48384 3.43995C4.0009 3.43995 3.60338 3.82655 3.60338 4.30431C3.60338 4.7821 3.99718 5.1687 4.48384 5.1687C4.9705 5.1687 5.36429 4.7821 5.36429 4.30431C5.36429 3.82655 4.96679 3.43995 4.48384 3.43995Z" fill="#1D8DAD" stroke="#1D8DAD" stroke-width="0.5"/>
<path d="M4.48338 8.8451C3.93357 8.8451 3.38003 8.64085 2.9491 8.23602C1.85319 7.20022 0.642117 5.54804 1.09906 3.58221C1.51142 1.79873 3.0977 1 4.48338 1H4.48709C5.87277 1 7.45905 1.79873 7.87141 3.58586C8.32464 5.55169 7.11356 7.20022 6.01765 8.23602C5.58672 8.64085 5.03319 8.8451 4.48338 8.8451ZM4.48338 1.54708C3.40232 1.54708 2.01293 2.11239 1.64515 3.70256C1.24394 5.42039 2.34356 6.90115 3.33917 7.83847C3.98186 8.44755 4.98861 8.44755 5.6313 7.83847C6.62319 6.90115 7.72281 5.42039 7.32903 3.70256C6.95753 2.11239 5.56443 1.54708 4.48338 1.54708Z" fill="#1D8DAD" stroke="#1D8DAD" stroke-width="0.5"/>
</svg>
