<svg width="22" height="22" viewBox="0 0 22 22" fill="none" xmlns="http://www.w3.org/2000/svg">
<g clip-path="url(#clip0_704_224)">
<path d="M12.8333 9.16673H9.16667C8.15558 9.16673 7.33333 9.98898 7.33333 11.0001V14.6667C7.33333 15.6778 8.15558 16.5001 9.16667 16.5001H12.8333C13.8444 16.5001 14.6667 15.6778 14.6667 14.6667V11.0001C14.6667 9.98898 13.8444 9.16673 12.8333 9.16673ZM9.16667 14.6667V11.0001H12.8333V14.6667H9.16667ZM20.1667 5.24707V1.8334C20.1667 1.32648 19.756 0.916733 19.25 0.916733C18.744 0.916733 18.3333 1.32648 18.3333 1.8334V4.00315L13.5639 0.783816C12.0065 -0.266684 9.9935 -0.266684 8.43608 0.783816L2.02033 5.11415C0.755333 5.96757 0 7.38657 0 8.91373V17.4167C0 19.944 2.05608 22.0001 4.58333 22.0001H17.4167C19.9439 22.0001 22 19.944 22 17.4167V8.91373C22 7.46448 21.318 6.10965 20.1667 5.24707ZM20.1667 17.4167C20.1667 18.9329 18.9328 20.1667 17.4167 20.1667H4.58333C3.06717 20.1667 1.83333 18.9329 1.83333 17.4167V8.91373C1.83333 7.99798 2.28617 7.1464 3.04517 6.6349L9.46183 2.30457C9.92933 1.98832 10.4647 1.83065 11 1.83065C11.5353 1.83065 12.0707 1.98832 12.5382 2.30457L18.9548 6.6349C19.7138 7.14732 20.1667 7.99798 20.1667 8.91373V17.4167Z" fill="#A9CA6D"/>
</g>
<defs>
<clipPath id="clip0_704_224">
<rect width="22" height="22" fill="white"/>
</clipPath>
</defs>
</svg>
