<svg width="15" height="15" viewBox="0 0 15 15" fill="none" xmlns="http://www.w3.org/2000/svg">
<path d="M1.85678 1H7.50488C7.97449 1 8.36161 1.38712 8.36161 1.85674V2.79596C8.36161 3.13865 8.14584 3.56385 7.93642 3.77962L6.09603 5.40423C5.84221 5.62 5.67083 6.04519 5.67083 6.38788V8.22827C5.67083 8.48212 5.4995 8.82481 5.28373 8.95808L4.68719 9.34519C4.12873 9.68788 3.36082 9.30077 3.36082 8.61538V6.34981C3.36082 6.05153 3.18949 5.66443 3.01814 5.44866L1.39353 3.73519C1.17776 3.51942 1.00642 3.13865 1.00642 2.87846V1.89481C1.00008 1.38712 1.38717 1 1.85678 1Z" stroke="#ACACAC" stroke-width="1.2" stroke-miterlimit="10" stroke-linecap="round" stroke-linejoin="round"/>
<path d="M1 7.34614V9.24998C1 12.4231 2.26923 13.6923 5.44231 13.6923H9.25C12.4231 13.6923 13.6923 12.4231 13.6923 9.24998V5.44229C13.6923 3.46229 13.1973 2.21844 12.0487 1.57113C11.725 1.38709 11.0777 1.24748 10.4875 1.15228" stroke="#ACACAC" stroke-width="1.2" stroke-linecap="round" stroke-linejoin="round"/>
<path d="M7.98077 7.98074H11.1539" stroke="#ACACAC" stroke-width="1.2" stroke-linecap="round" stroke-linejoin="round"/>
<path d="M6.71155 10.5192H11.1539" stroke="#ACACAC" stroke-width="1.2" stroke-linecap="round" stroke-linejoin="round"/>
</svg>
