<svg width="25" height="24" viewBox="0 0 25 24" fill="none" xmlns="http://www.w3.org/2000/svg">
<g clip-path="url(#clip0_704_799)">
<path d="M25 10V19C24.9983 20.3256 24.4491 21.5964 23.4727 22.5338C22.4963 23.4711 21.1725 23.9984 19.7917 24H5.20833C3.8275 23.9984 2.50371 23.4711 1.52731 22.5338C0.550919 21.5964 0.00165402 20.3256 0 19L0 8C0.00165402 6.67441 0.550919 5.40356 1.52731 4.46622C2.50371 3.52888 3.8275 3.00159 5.20833 3H13.5417C13.8179 3 14.0829 3.10536 14.2782 3.29289C14.4736 3.48043 14.5833 3.73478 14.5833 4C14.5833 4.26522 14.4736 4.51957 14.2782 4.70711C14.0829 4.89464 13.8179 5 13.5417 5H5.20833C4.64188 5.0015 4.08658 5.15128 3.60221 5.43321C3.11783 5.71514 2.72271 6.11854 2.45937 6.6L10.2896 14.118C10.8768 14.6791 11.6715 14.9941 12.5 14.9941C13.3285 14.9941 14.1232 14.6791 14.7104 14.118L18.6906 10.3C18.8871 10.1178 19.1502 10.017 19.4233 10.0193C19.6965 10.0216 19.9577 10.1268 20.1509 10.3122C20.344 10.4976 20.4535 10.7484 20.4559 11.0106C20.4583 11.2728 20.3533 11.5254 20.1635 11.714L16.1833 15.536C15.2055 16.472 13.8809 16.9976 12.5 16.9976C11.1191 16.9976 9.79454 16.472 8.81667 15.536L2.08333 9.071V19C2.08333 19.7956 2.41257 20.5587 2.99862 21.1213C3.58468 21.6839 4.37953 22 5.20833 22H19.7917C20.6205 22 21.4153 21.6839 22.0014 21.1213C22.5874 20.5587 22.9167 19.7956 22.9167 19V10C22.9167 9.73478 23.0264 9.48043 23.2218 9.29289C23.4171 9.10536 23.6821 9 23.9583 9C24.2346 9 24.4996 9.10536 24.6949 9.29289C24.8903 9.48043 25 9.73478 25 10ZM17.7083 5H19.7917V7C19.7917 7.26522 19.9014 7.51957 20.0968 7.70711C20.2921 7.89464 20.5571 8 20.8333 8C21.1096 8 21.3746 7.89464 21.5699 7.70711C21.7653 7.51957 21.875 7.26522 21.875 7V5H23.9583C24.2346 5 24.4996 4.89464 24.6949 4.70711C24.8903 4.51957 25 4.26522 25 4C25 3.73478 24.8903 3.48043 24.6949 3.29289C24.4996 3.10536 24.2346 3 23.9583 3H21.875V1C21.875 0.734784 21.7653 0.48043 21.5699 0.292893C21.3746 0.105357 21.1096 0 20.8333 0C20.5571 0 20.2921 0.105357 20.0968 0.292893C19.9014 0.48043 19.7917 0.734784 19.7917 1V3H17.7083C17.4321 3 17.1671 3.10536 16.9718 3.29289C16.7764 3.48043 16.6667 3.73478 16.6667 4C16.6667 4.26522 16.7764 4.51957 16.9718 4.70711C17.1671 4.89464 17.4321 5 17.7083 5Z" fill="#C7C6C7"/>
</g>
<defs>
<clipPath id="clip0_704_799">
<rect width="25" height="24" fill="white"/>
</clipPath>
</defs>
</svg>
