<svg width="14" height="15" viewBox="0 0 14 15" fill="none" xmlns="http://www.w3.org/2000/svg">
<path d="M8.82286 14.7521H4.97279C1.48848 14.7521 -0.000213623 13.2634 -0.000213623 9.77913V5.92906C-0.000213623 2.44475 1.48848 0.956055 4.97279 0.956055H6.25615C6.51924 0.956055 6.73741 1.17423 6.73741 1.43731C6.73741 1.7004 6.51924 1.91857 6.25615 1.91857H4.97279C2.01466 1.91857 0.962304 2.97092 0.962304 5.92906V9.77913C0.962304 12.7373 2.01466 13.7896 4.97279 13.7896H8.82286C11.781 13.7896 12.8333 12.7373 12.8333 9.77913V8.49577C12.8333 8.23268 13.0515 8.01451 13.3146 8.01451C13.5777 8.01451 13.7959 8.23268 13.7959 8.49577V9.77913C13.7959 13.2634 12.3072 14.7521 8.82286 14.7521Z" fill="white"/>
<path d="M4.65155 11.5052C4.26013 11.5052 3.90079 11.364 3.6377 11.1073C3.32328 10.7929 3.18853 10.3373 3.25911 9.85607L3.53504 7.92462C3.58637 7.55245 3.83021 7.07119 4.0933 6.8081L9.14969 1.75165C10.4266 0.47471 11.7228 0.47471 12.9998 1.75165C13.6992 2.45108 14.0136 3.16334 13.9494 3.8756C13.8917 4.45311 13.5837 5.01779 12.9998 5.5953L7.94333 10.6518C7.68024 10.9148 7.19899 11.1587 6.82681 11.21L4.89539 11.4859C4.81197 11.5052 4.72856 11.5052 4.65155 11.5052ZM9.82986 2.43183L4.77347 7.48828C4.65156 7.6102 4.51039 7.89254 4.48472 8.05937L4.2088 9.99082C4.18313 10.1769 4.22163 10.3309 4.31788 10.4272C4.41413 10.5234 4.56814 10.5619 4.75422 10.5362L6.68564 10.2603C6.85248 10.2347 7.14123 10.0935 7.25674 9.97157L12.3132 4.91512C12.7302 4.49803 12.9484 4.12586 12.9805 3.77935C13.019 3.36226 12.8008 2.9195 12.3132 2.42541C11.2865 1.39873 10.5806 1.68748 9.82986 2.43183Z" fill="white"/>
<path d="M11.9346 6.46141C11.8896 6.46141 11.8447 6.45499 11.8062 6.44216C10.1186 5.96732 8.7775 4.62621 8.30265 2.9386C8.23207 2.68193 8.37966 2.41884 8.63633 2.34184C8.893 2.27125 9.15609 2.41884 9.22667 2.67551C9.61168 4.04229 10.6961 5.12672 12.0629 5.51173C12.3196 5.58231 12.4671 5.85182 12.3966 6.10849C12.3388 6.32666 12.1463 6.46141 11.9346 6.46141Z" fill="white"/>
</svg>
