<svg width="29" height="29" viewBox="0 0 29 29" fill="none" xmlns="http://www.w3.org/2000/svg">
<path d="M20.8714 5.66006H14.8427C14.7005 5.66006 14.5564 5.62742 14.4299 5.56745L11.5153 4.17474C11.1329 3.99217 10.7044 3.89603 10.2759 3.89603H7.9422C5.39608 3.89603 3.32465 5.87439 3.32465 8.3061V18.8903C3.32465 20.4594 4.20937 21.9226 5.6325 22.7094C6.07486 22.9546 6.63913 22.8091 6.89402 22.3884C7.14983 21.9659 6.99837 21.427 6.55786 21.1835C5.70269 20.7108 5.17167 19.8323 5.17167 18.8903V10.9521H23.6419V18.8903C23.6419 19.8314 23.1109 20.7099 22.2557 21.1835C21.8143 21.427 21.6628 21.9668 21.9195 22.3884C22.0904 22.6706 22.4007 22.8285 22.7193 22.8285C22.8763 22.8285 23.0352 22.7906 23.1811 22.7094C24.6042 21.9226 25.4889 20.4594 25.4889 18.8903V10.0701C25.4889 7.63842 23.4175 5.66006 20.8714 5.66006ZM5.17167 8.3061C5.17167 6.84725 6.41472 5.66006 7.9422 5.66006H10.2759C10.4181 5.66006 10.5622 5.69181 10.6887 5.75267L13.6033 7.14537C13.9866 7.32707 14.4151 7.4232 14.8418 7.4232H20.8704C22.0729 7.4232 23.0887 8.16322 23.4711 9.18723H5.17167V8.3061ZM14.3985 12.7162C10.8346 12.7162 7.93389 15.4866 7.93389 18.8903C7.93389 22.294 10.8346 25.0644 14.3985 25.0644C17.9623 25.0644 20.8631 22.294 20.8631 18.8903C20.8631 15.4866 17.9623 12.7162 14.3985 12.7162ZM14.3985 23.3004C11.8524 23.3004 9.78092 21.322 9.78092 18.8903C9.78092 16.4586 11.8524 14.4802 14.3985 14.4802C16.9446 14.4802 19.016 16.4586 19.016 18.8903C19.016 21.322 16.9446 23.3004 14.3985 23.3004ZM15.9749 19.1487C16.336 19.4936 16.336 20.051 15.9749 20.3959C15.7948 20.5679 15.5584 20.6543 15.322 20.6543C15.0856 20.6543 14.8491 20.5679 14.6691 20.3959L13.7455 19.5139C13.5719 19.348 13.475 19.1249 13.475 18.8903V17.1263C13.475 16.6385 13.8878 16.2442 14.3985 16.2442C14.9092 16.2442 15.322 16.6385 15.322 17.1263V18.5251L15.9749 19.1487Z" fill="#F2BD00"/>
</svg>
