<svg width="14" height="15" viewBox="0 0 14 15" fill="none" xmlns="http://www.w3.org/2000/svg">
<g clip-path="url(#clip0_17_2266)">
<path d="M12.2499 13.7002H5.24994C4.95653 13.7002 4.80544 13.5065 4.75353 13.4237C4.70219 13.3397 4.59661 13.1186 4.72786 12.8555L5.31411 11.6836C5.76736 11.8562 6.25561 11.9496 6.76078 11.9496H11.0827C11.5966 11.9496 12.0825 11.725 12.4162 11.333C12.7499 10.941 12.8928 10.4224 12.8094 9.90966C12.674 9.07725 11.9046 8.44958 11.0209 8.44958H6.76894C6.50644 8.44958 6.27544 8.27283 6.20661 8.02025L5.84611 6.69958H11.0833C11.4053 6.69958 11.6666 6.43883 11.6666 6.11625C11.6666 5.79366 11.4053 5.53291 11.0833 5.53291H5.52703L4.62344 2.22658C4.38661 1.32416 3.54428 0.741996 2.66228 0.871496C2.16994 0.943829 1.73011 1.22325 1.45653 1.63741C1.18294 2.05158 1.09778 2.56491 1.22553 3.04966L2.81978 8.93491C3.06186 9.82741 3.59211 10.5846 4.29328 11.1172L3.68486 12.334C3.41186 12.8812 3.44044 13.517 3.76186 14.0367C4.08328 14.5565 4.63919 14.8668 5.25053 14.8668H12.2505C12.5725 14.8668 12.8339 14.6061 12.8339 14.2835C12.8339 13.9609 12.5719 13.7002 12.2499 13.7002ZM2.35253 2.74925C2.30994 2.58708 2.33736 2.42083 2.43011 2.28083C2.52228 2.14083 2.69203 2.02066 2.90378 2.02066C3.16628 2.02066 3.41769 2.22891 3.49644 2.52933L5.08078 8.32825C5.28786 9.08716 5.98203 9.61683 6.76894 9.61683H11.0209C11.3341 9.61683 11.6141 9.828 11.6584 10.0975C11.687 10.2748 11.6409 10.4452 11.5278 10.5776C11.4169 10.7082 11.2548 10.7835 11.0833 10.7835H6.76136C5.44711 10.7835 4.28978 9.89741 3.94619 8.62983L2.35253 2.74925Z" fill="#1D8DAD"/>
</g>
<defs>
<clipPath id="clip0_17_2266">
<rect width="14" height="14" fill="white" transform="translate(0 0.866821)"/>
</clipPath>
</defs>
</svg>
