<svg width="39" height="39" viewBox="0 0 39 39" fill="none" xmlns="http://www.w3.org/2000/svg">
<path d="M27.6843 0H11.3351C4.23361 0 0 4.2315 0 11.3295V27.651C0 34.7685 4.23361 39 11.3351 39H27.6648C34.7663 39 38.9999 34.7685 38.9999 27.6705V11.3295C39.0194 4.2315 34.7858 0 27.6843 0ZM23.002 25.35C23.5677 25.9155 23.5677 26.8515 23.002 27.417C22.7093 27.7095 22.3386 27.846 21.9679 27.846C21.5973 27.846 21.2266 27.7095 20.9339 27.417L14.047 20.5335C13.4812 19.968 13.4812 19.032 14.047 18.4665L20.9339 11.583C21.4997 11.0175 22.4362 11.0175 23.002 11.583C23.5677 12.1485 23.5677 13.0845 23.002 13.65L17.149 19.5L23.002 25.35Z" fill="#1D8DAD"/>
</svg>
