<svg width="19" height="27" viewBox="0 0 19 27" fill="none" xmlns="http://www.w3.org/2000/svg">
<path d="M9.60064 12.6931C9.479 12.6809 9.33304 12.6809 9.19924 12.6931C6.30428 12.5958 4.00537 10.2239 4.00537 7.30467C4.00537 4.32461 6.41375 1.90407 9.40602 1.90407C12.3861 1.90407 14.8066 4.32461 14.8066 7.30467C14.7945 10.2239 12.4956 12.5958 9.60064 12.6931Z" stroke="#C7C6C7" stroke-width="2" stroke-linecap="round" stroke-linejoin="round"/>
<path d="M3.51871 17.1815C0.575142 19.1519 0.575142 22.3631 3.51871 24.3214C6.86368 26.5595 12.3495 26.5595 15.6944 24.3214C18.638 22.3509 18.638 19.1398 15.6944 17.1815C12.3616 14.9555 6.87585 14.9555 3.51871 17.1815Z" stroke="#C7C6C7" stroke-width="2" stroke-linecap="round" stroke-linejoin="round"/>
</svg>
