<svg width="18" height="20" viewBox="0 0 18 20" fill="none" xmlns="http://www.w3.org/2000/svg">
<g opacity="0.4">
<path d="M8.60465 20C7.87907 20 7.17209 19.6279 6.68837 18.9767L5.74884 17.7209C5.55349 17.4605 5.29302 17.3116 5.01395 17.293C4.73488 17.2837 4.45581 17.4047 4.23256 17.6372L3.70233 17.1628L4.21395 17.6372C2.87442 19.0698 1.84186 18.9581 1.34884 18.7628C0.846511 18.5674 0 17.9256 0 15.8605V5.38605C0 1.25581 1.1907 0 5.08837 0H12.1209C16.0186 0 17.2093 1.25581 17.2093 5.38605V15.8605C17.2093 17.9163 16.3628 18.5581 15.8605 18.7628C15.3674 18.9581 14.3442 19.0698 12.9953 17.6372C12.7721 17.3953 12.493 17.2651 12.2047 17.293C11.9256 17.3116 11.6558 17.4605 11.4605 17.7209L10.5209 18.9767C10.0372 19.6279 9.33023 20 8.60465 20ZM4.95814 15.8884H5.07907C5.76744 15.9256 6.4186 16.2884 6.85581 16.8744L7.79535 18.1302C8.25116 18.7349 8.94884 18.7349 9.40465 18.1302L10.3442 16.8744C10.7907 16.2884 11.4326 15.9256 12.1302 15.8884C12.8186 15.8512 13.507 16.1395 14.0093 16.6791C14.7163 17.4326 15.1721 17.5256 15.3395 17.4605C15.5628 17.3674 15.8047 16.8279 15.8047 15.8605V5.38605C15.8047 2.02791 15.2186 1.39535 12.1116 1.39535H5.08837C1.9814 1.39535 1.39535 2.02791 1.39535 5.38605V15.8605C1.39535 16.8372 1.63721 17.3767 1.86047 17.4605C2.0186 17.5256 2.48372 17.4326 3.1907 16.6791C3.69302 16.1674 4.31628 15.8884 4.95814 15.8884Z" fill="black"/>
<path d="M12.5401 9.76746H7.42378C7.04238 9.76746 6.72607 9.45119 6.72607 9.06979C6.72607 8.6884 7.04238 8.37212 7.42378 8.37212H12.5401C12.9215 8.37212 13.2377 8.6884 13.2377 9.06979C13.2377 9.45119 12.9215 9.76746 12.5401 9.76746Z" fill="black"/>
<path d="M12.5401 6.04655H7.42378C7.04238 6.04655 6.72607 5.73027 6.72607 5.34887C6.72607 4.96748 7.04238 4.6512 7.42378 4.6512H12.5401C12.9215 4.6512 13.2377 4.96748 13.2377 5.34887C13.2377 5.73027 12.9215 6.04655 12.5401 6.04655Z" fill="black"/>
<path d="M4.6784 6.2792C4.16677 6.2792 3.74817 5.86059 3.74817 5.34896C3.74817 4.83734 4.16677 4.41873 4.6784 4.41873C5.19003 4.41873 5.60863 4.83734 5.60863 5.34896C5.60863 5.86059 5.19003 6.2792 4.6784 6.2792Z" fill="black"/>
<path d="M4.6784 9.9999C4.16677 9.9999 3.74817 9.5813 3.74817 9.06967C3.74817 8.55804 4.16677 8.13943 4.6784 8.13943C5.19003 8.13943 5.60863 8.55804 5.60863 9.06967C5.60863 9.5813 5.19003 9.9999 4.6784 9.9999Z" fill="black"/>
</g>
</svg>
