<svg width="39" height="40" viewBox="0 0 39 40" fill="none" xmlns="http://www.w3.org/2000/svg">
<g opacity="0.8">
<path d="M27.6843 0H11.3351C4.23361 0 0 4.23361 0 11.3351V27.6648C0 34.7858 4.23361 39.0194 11.3351 39.0194H27.6648C34.7663 39.0194 38.9999 34.7858 38.9999 27.6843V11.3351C39.0194 4.23361 34.7858 0 27.6843 0ZM23.002 25.3626C23.5677 25.9284 23.5677 26.8649 23.002 27.4307C22.7093 27.7233 22.3386 27.8599 21.9679 27.8599C21.5973 27.8599 21.2266 27.7233 20.9339 27.4307L14.047 20.5437C13.4812 19.978 13.4812 19.0415 14.047 18.4757L20.9339 11.5888C21.4997 11.023 22.4362 11.023 23.002 11.5888C23.5677 12.1546 23.5677 13.091 23.002 13.6568L17.149 19.5097L23.002 25.3626Z" fill="white"/>
</g>
</svg>
