<svg width="22" height="23" viewBox="0 0 22 23" fill="none" xmlns="http://www.w3.org/2000/svg">
<path d="M10.896 0.97316C4.89229 0.97316 0 5.86545 0 11.8691C0 17.8728 4.89229 22.7651 10.896 22.7651C16.8997 22.7651 21.7919 17.8728 21.7919 11.8691C21.7919 5.86545 16.8997 0.97316 10.896 0.97316ZM16.1042 9.36306L9.92623 15.5411C9.77369 15.6936 9.56666 15.7808 9.34875 15.7808C9.13083 15.7808 8.9238 15.6936 8.77126 15.5411L5.6877 12.4575C5.37171 12.1415 5.37171 11.6185 5.6877 11.3025C6.00368 10.9866 6.52669 10.9866 6.84267 11.3025L9.34875 13.8086L14.9493 8.20809C15.2653 7.8921 15.7883 7.8921 16.1042 8.20809C16.4202 8.52407 16.4202 9.03618 16.1042 9.36306Z" fill="#A9CA6D"/>
</svg>
