<svg width="19" height="19" viewBox="0 0 19 19" fill="none" xmlns="http://www.w3.org/2000/svg">
<g opacity="0.4" clip-path="url(#clip0_276_534)">
<path d="M9.5 0C7.16102 0.00166754 4.90527 0.868159 3.16667 2.43279V0.791667C3.16667 0.581704 3.08326 0.38034 2.93479 0.231874C2.78633 0.0834075 2.58496 0 2.375 0C2.16504 0 1.96367 0.0834075 1.81521 0.231874C1.66674 0.38034 1.58333 0.581704 1.58333 0.791667V3.16667C1.58333 3.79656 1.83356 4.40065 2.27895 4.84605C2.72435 5.29144 3.32844 5.54167 3.95833 5.54167H6.33333C6.5433 5.54167 6.74466 5.45826 6.89313 5.30979C7.04159 5.16133 7.125 4.95996 7.125 4.75C7.125 4.54004 7.04159 4.33867 6.89313 4.19021C6.74466 4.04174 6.5433 3.95833 6.33333 3.95833H3.95833C3.93164 3.95438 3.9052 3.94883 3.87917 3.94171C5.1692 2.64245 6.87018 1.83119 8.69176 1.6464C10.5133 1.46162 12.3426 1.91477 13.8672 2.9285C15.3919 3.94224 16.5175 5.45371 17.0519 7.20492C17.5862 8.95613 17.4962 10.8385 16.7972 12.5308C16.0983 14.223 14.8336 15.6202 13.2192 16.4839C11.6048 17.3475 9.74066 17.6241 7.94502 17.2664C6.14938 16.9087 4.53355 15.9389 3.37334 14.5225C2.21312 13.1061 1.58046 11.3309 1.58333 9.5C1.58333 9.29004 1.49993 9.08867 1.35146 8.94021C1.20299 8.79174 1.00163 8.70833 0.791667 8.70833C0.581704 8.70833 0.38034 8.79174 0.231874 8.94021C0.0834075 9.08867 0 9.29004 0 9.5C0 11.3789 0.557165 13.2157 1.60104 14.7779C2.64491 16.3402 4.12861 17.5578 5.86451 18.2769C7.60041 18.9959 9.51054 19.184 11.3534 18.8175C13.1962 18.4509 14.8889 17.5461 16.2175 16.2175C17.5461 14.8889 18.4509 13.1962 18.8175 11.3534C19.184 9.51054 18.9959 7.60041 18.2769 5.86451C17.5578 4.12861 16.3402 2.64491 14.7779 1.60104C13.2157 0.557165 11.3789 0 9.5 0Z" fill="black"/>
<path d="M9.50004 4.75C9.29008 4.75 9.08871 4.83341 8.94025 4.98187C8.79178 5.13034 8.70837 5.3317 8.70837 5.54167V9.5C8.70842 9.70995 8.79186 9.91128 8.94033 10.0597L11.3153 12.4347C11.4646 12.5789 11.6646 12.6587 11.8722 12.6569C12.0798 12.6551 12.2783 12.5718 12.4251 12.4251C12.5719 12.2783 12.6551 12.0797 12.6569 11.8722C12.6588 11.6646 12.579 11.4646 12.4347 11.3153L10.2917 9.17225V5.54167C10.2917 5.3317 10.2083 5.13034 10.0598 4.98187C9.91137 4.83341 9.71 4.75 9.50004 4.75Z" fill="black"/>
</g>
<defs>
<clipPath id="clip0_276_534">
<rect width="19" height="19" fill="white"/>
</clipPath>
</defs>
</svg>
