<svg width="24" height="24" viewBox="0 0 24 24" fill="none" xmlns="http://www.w3.org/2000/svg">
<g clip-path="url(#clip0_704_231)">
<path d="M17.2881 3.39545H5.76271C2.58458 3.39545 0 5.98002 0 9.15816V17.8022C0 19.3908 1.29277 20.6836 2.88136 20.6836H20.1695C21.7581 20.6836 23.0508 19.3908 23.0508 17.8022V9.15816C23.0508 5.98002 20.4663 3.39545 17.2881 3.39545ZM1.9209 17.8022V9.15816C1.9209 7.0394 3.64395 5.31635 5.76271 5.31635C7.88147 5.31635 9.60452 7.0394 9.60452 9.15816V17.8022C9.60452 18.3324 9.17328 18.7627 8.64407 18.7627H2.88136C2.35215 18.7627 1.9209 18.3324 1.9209 17.8022ZM21.1299 17.8022C21.1299 18.3324 20.6997 18.7627 20.1695 18.7627H11.3602C11.4668 18.4621 11.5254 18.1393 11.5254 17.8022V9.15816C11.5254 7.68386 10.9684 6.33635 10.054 5.31635H17.2881C19.4069 5.31635 21.1299 7.0394 21.1299 9.15816V17.8022ZM19.209 10.1186V12.0395C19.209 12.5697 18.7797 13 18.2486 13C17.7175 13 17.2881 12.5697 17.2881 12.0395V11.0791H14.4068C13.8756 11.0791 13.4463 10.6488 13.4463 10.1186C13.4463 9.58844 13.8756 9.15816 14.4068 9.15816H18.2486C18.7797 9.15816 19.209 9.58844 19.209 10.1186ZM7.68362 10.1186C7.68362 10.6488 7.25333 11.0791 6.72316 11.0791H4.80226C4.27209 11.0791 3.84181 10.6488 3.84181 10.1186C3.84181 9.58844 4.27209 9.15816 4.80226 9.15816H6.72316C7.25333 9.15816 7.68362 9.58844 7.68362 10.1186Z" fill="#1D8DAD"/>
</g>
<defs>
<clipPath id="clip0_704_231">
<rect width="23.0508" height="23.0508" fill="white" transform="translate(0 0.514099)"/>
</clipPath>
</defs>
</svg>
