<svg width="92" height="80" viewBox="0 0 92 80" fill="none" xmlns="http://www.w3.org/2000/svg">
<path d="M90.7186 75.268L53.071 43.2195V3.81352C53.071 2.42933 51.9487 1.307 50.5645 1.307H28.7415C27.3573 1.307 26.235 2.42933 26.235 3.81352V19.9999L4.15022 0.621141C3.11519 -0.289186 1.53147 -0.189424 0.621142 0.858077C-0.289186 1.89311 -0.189424 3.47683 0.858076 4.38715L27.1079 27.4072C27.8437 28.0432 28.8912 28.2053 29.789 27.8063C30.6869 27.4072 31.2605 26.5094 31.2605 25.5242V6.32004H48.0829V44.3792C48.0829 45.115 48.4071 45.8133 48.9683 46.2872L87.5013 79.0964C87.9502 79.4829 88.5239 79.6949 89.1224 79.6949C89.8582 79.6949 90.5565 79.3707 91.0304 78.8096C91.9282 77.7621 91.7911 76.1783 90.7436 75.2805L90.7186 75.268Z" fill="white"/>
<path d="M39.2789 34.7031C38.3686 34.7031 37.6328 35.4389 37.6328 36.3492C37.6328 37.2595 38.3686 37.9953 39.2789 37.9953C40.1892 37.9953 40.925 37.2595 40.925 36.3492C40.925 35.4389 40.1892 34.7031 39.2789 34.7031Z" fill="white"/>
</svg>
