<svg width="60" height="60" viewBox="0 0 60 60" fill="none" xmlns="http://www.w3.org/2000/svg">
<path d="M55.5583 0H4.44167C1.98861 0 0 1.98861 0 4.44167V55.5583C0 58.0114 1.98861 60 4.44167 60H55.5583C58.0114 60 60 58.0114 60 55.5583V4.44167C60 1.98861 58.0114 0 55.5583 0Z" fill="url(#paint0_linear_1055_29)"/>
<path d="M54.5049 49.3266L33.9698 31.8456V10.3515C33.9698 9.59645 33.3576 8.98427 32.6026 8.98427H20.6992C19.9442 8.98427 19.332 9.59645 19.332 10.3515V19.1804L7.28573 8.61017C6.72117 8.11362 5.85732 8.16804 5.36078 8.7394C4.86423 9.30397 4.91865 10.1678 5.49001 10.6644L19.8081 23.2208C20.2094 23.5677 20.7808 23.6561 21.2705 23.4384C21.7603 23.2208 22.0732 22.731 22.0732 22.1937V11.7187H31.249V32.4782C31.249 32.8795 31.4258 33.2604 31.7319 33.5189L52.75 51.4148C52.9948 51.6257 53.3077 51.7413 53.6342 51.7413C54.0355 51.7413 54.4164 51.5645 54.6749 51.2584C55.1646 50.687 55.0898 49.8232 54.5185 49.3334L54.5049 49.3266Z" fill="white"/>
<path d="M26.4469 27.1998C25.9504 27.1998 25.5491 27.6011 25.5491 28.0977C25.5491 28.5942 25.9504 28.9955 26.4469 28.9955C26.9435 28.9955 27.3448 28.5942 27.3448 28.0977C27.3448 27.6011 26.9435 27.1998 26.4469 27.1998Z" fill="white"/>
<path d="M28.263 12.6777H24.6376C24.4911 12.6777 24.3723 12.7964 24.3723 12.943V12.9498C24.3723 13.0963 24.4911 13.215 24.6376 13.215H28.263C28.4095 13.215 28.5283 13.0963 28.5283 12.9498V12.943C28.5283 12.7964 28.4095 12.6777 28.263 12.6777Z" fill="white"/>
<defs>
<linearGradient id="paint0_linear_1055_29" x1="-19.5488" y1="43.8726" x2="81.4874" y2="15.5901" gradientUnits="userSpaceOnUse">
<stop stop-color="#50517A"/>
<stop offset="0.13" stop-color="#4A587F"/>
<stop offset="0.33" stop-color="#3A6B90"/>
<stop offset="0.56" stop-color="#228AAA"/>
<stop offset="0.85" stop-color="#436087"/>
<stop offset="1" stop-color="#50517A"/>
</linearGradient>
</defs>
</svg>
