<svg width="173" height="87" viewBox="0 0 173 87" fill="none" xmlns="http://www.w3.org/2000/svg">
<g clip-path="url(#clip0_711_2107)">
<path d="M47.2347 71.1558C51.9313 71.1558 55.7386 67.3138 55.7386 62.5744C55.7386 57.8351 51.9313 53.9931 47.2347 53.9931C42.5381 53.9931 38.7308 57.8351 38.7308 62.5744C38.7308 67.3138 42.5381 71.1558 47.2347 71.1558Z" fill="#E4E4E4"/>
<path opacity="0.2" d="M40.9557 56.8428C40.1625 58.7152 40.0549 60.8112 40.6521 62.7563C41.2494 64.7013 42.5125 66.3687 44.2159 67.4605C45.9193 68.5523 47.9518 68.9973 49.9504 68.716C51.949 68.4347 53.7833 67.4455 55.1257 65.925C54.6411 67.069 53.9159 68.0929 53.0002 68.926C52.0846 69.759 51.0004 70.3812 49.8228 70.7494C48.6452 71.1177 47.4023 71.2231 46.1803 71.0586C44.9583 70.894 43.7864 70.4632 42.7457 69.7962C41.7051 69.1292 40.8205 68.2418 40.1535 67.1956C39.4864 66.1494 39.0527 64.9693 38.8824 63.7372C38.7121 62.505 38.8094 61.2503 39.1674 60.0598C39.5254 58.8693 40.1356 57.7716 40.9557 56.8428Z" fill="black"/>
<path d="M47.2581 62.5745H47.2813L47.7019 86.904H46.8141L47.2581 62.5745Z" fill="#3F3D56"/>
<path d="M30.0288 55.1528C39.498 55.1528 47.1742 47.4066 47.1742 37.8512C47.1742 28.2958 39.498 20.5497 30.0288 20.5497C20.5597 20.5497 12.8835 28.2958 12.8835 37.8512C12.8835 47.4066 20.5597 55.1528 30.0288 55.1528Z" fill="#E4E4E4"/>
<path opacity="0.2" d="M17.3693 26.2952C15.77 30.0702 15.553 34.2962 16.7572 38.2178C17.9613 42.1394 20.5081 45.5012 23.9424 47.7024C27.3767 49.9036 31.4747 50.8008 35.5042 50.2337C39.5337 49.6666 43.2321 47.6721 45.9385 44.6066C44.9615 46.913 43.4993 48.9775 41.6532 50.6571C39.8071 52.3367 37.6212 53.5911 35.2469 54.3335C32.8727 55.076 30.3668 55.2886 27.9031 54.9568C25.4393 54.6249 23.0764 53.7565 20.9783 52.4117C18.8801 51.0668 17.0967 49.2778 15.7518 47.1684C14.4068 45.059 13.5324 42.6798 13.1891 40.1956C12.8458 37.7113 13.0419 35.1815 13.7636 32.7813C14.4854 30.3811 15.7157 28.1679 17.3693 26.2952Z" fill="black"/>
<path d="M30.0759 37.8512H30.1231L30.971 86.904H29.181L30.0759 37.8512Z" fill="#3F3D56"/>
<path d="M143.069 61.5145H64.4818V85.0233H143.069V61.5145Z" fill="#F0F0F0"/>
<path d="M108.357 66.373H99.1936V85.0233H108.357V66.373Z" fill="#CACACA"/>
<path d="M138.487 33.7742H69.0634V55.4023H138.487V33.7742Z" fill="#F0F0F0"/>
<path d="M145.525 35.1064H62.0251C61.8857 35.1064 61.7495 35.0643 61.634 34.9856C61.5184 34.9069 61.4289 34.7951 61.3768 34.6646C61.3247 34.5341 61.3125 34.3909 61.3418 34.2533C61.371 34.1158 61.4403 33.9902 61.5408 33.8927L84.3615 11.7574V2.11579C84.3617 1.92881 84.4354 1.74954 84.5664 1.61733C84.6974 1.48511 84.8751 1.41074 85.0603 1.41053H89.5643C89.7496 1.41073 89.9273 1.4851 90.0583 1.61732C90.1893 1.74954 90.263 1.9288 90.2632 2.11579V6.03299L91.9869 4.36106C94.8076 1.62509 98.5499 0.0678054 102.462 0.00216256C106.374 -0.0634803 110.165 1.36738 113.074 4.0072L145.993 33.8766C146.098 33.972 146.172 34.0974 146.205 34.2361C146.238 34.3748 146.228 34.5204 146.178 34.6536C146.127 34.7868 146.038 34.9014 145.921 34.9822C145.805 35.0631 145.667 35.1064 145.525 35.1064Z" fill="#CACACA"/>
<path d="M87.39 39.2596C87.9713 39.2596 88.5469 39.3751 89.0839 39.5996C89.6209 39.8241 90.1089 40.1531 90.5199 40.5679C90.9309 40.9826 91.257 41.475 91.4794 42.0169C91.7019 42.5589 91.8163 43.1397 91.8163 43.7263V49.7602H82.9637V43.7263C82.9637 43.1397 83.0782 42.5589 83.3006 42.0169C83.5231 41.475 83.8491 40.9826 84.2601 40.5679C84.6712 40.1531 85.1591 39.8241 85.6961 39.5996C86.2332 39.3751 86.8087 39.2596 87.39 39.2596Z" fill="white"/>
<path d="M103.775 39.338C104.949 39.338 106.075 39.8085 106.905 40.6462C107.735 41.4839 108.202 42.62 108.202 43.8046V49.8385H99.3489V43.8046C99.3489 42.62 99.8152 41.4839 100.645 40.6462C101.475 39.8085 102.601 39.338 103.775 39.338Z" fill="white"/>
<path d="M120.16 39.4163C121.334 39.4163 122.46 39.8869 123.29 40.7246C124.12 41.5622 124.587 42.6983 124.587 43.883V49.9169H115.734V43.883C115.734 42.6983 116.2 41.5622 117.031 40.7246C117.861 39.8869 118.986 39.4163 120.16 39.4163Z" fill="white"/>
<path d="M126.683 66.1379C127.857 66.1379 128.983 66.6085 129.813 67.4462C130.643 68.2838 131.11 69.4199 131.11 70.6046V76.6385H122.257V70.6046C122.257 69.4199 122.723 68.2838 123.554 67.4462C124.384 66.6085 125.509 66.1379 126.683 66.1379Z" fill="white"/>
<path d="M82.8861 66.1379C84.06 66.1379 85.1858 66.6085 86.0159 67.4462C86.846 68.2838 87.3124 69.4199 87.3124 70.6046V76.6385H78.4597V70.6046C78.4597 70.018 78.5742 69.4372 78.7967 68.8953C79.0191 68.3533 79.3451 67.8609 79.7562 67.4462C80.1672 67.0314 80.6551 66.7024 81.1922 66.4779C81.7292 66.2535 82.3048 66.1379 82.8861 66.1379Z" fill="white"/>
<path d="M154.55 61.8816L139.808 55.2992C139.729 55.2638 139.643 55.2455 139.556 55.2455H69.2985C69.2183 55.2455 69.1389 55.2612 69.0646 55.2917L53.0179 61.8741C52.8844 61.9289 52.774 62.0288 52.7054 62.1566C52.6369 62.2845 52.6145 62.4325 52.6422 62.5752C52.6698 62.7178 52.7457 62.8464 52.857 62.9388C52.9682 63.0312 53.1078 63.0818 53.2518 63.0818H57.4152V84.7098H56.9493V86.904H150.601V84.7098H149.825V63.0818H154.298C154.441 63.0818 154.579 63.0324 154.69 62.9418C154.8 62.8513 154.877 62.7252 154.906 62.5845C154.936 62.4439 154.916 62.2973 154.852 62.1693C154.787 62.0413 154.68 61.9398 154.55 61.8816ZM148.582 84.7098H58.6577V63.0818H148.582V84.7098Z" fill="#CACACA"/>
<path d="M92.9035 48.8982H81.5659V50.7789H92.9035V48.8982Z" fill="#CACACA"/>
<path d="M109.522 48.8982H98.1841V50.7789H109.522V48.8982Z" fill="#CACACA"/>
<path d="M126.14 48.8982H114.802V50.7789H126.14V48.8982Z" fill="#CACACA"/>
<path d="M132.352 76.0116H121.015V77.8923H132.352V76.0116Z" fill="#CACACA"/>
<path d="M88.3995 76.0116H77.0619V77.8923H88.3995V76.0116Z" fill="#CACACA"/>
<path d="M172.81 87H0.190319C0.139843 87 0.0914347 86.9798 0.055743 86.9437C0.0200513 86.9077 0 86.8589 0 86.8079C0 86.757 0.0200513 86.7082 0.055743 86.6721C0.0914347 86.6361 0.139843 86.6159 0.190319 86.6159H172.81C172.86 86.6159 172.909 86.6361 172.944 86.6721C172.98 86.7082 173 86.757 173 86.8079C173 86.8589 172.98 86.9077 172.944 86.9437C172.909 86.9798 172.86 87 172.81 87Z" fill="#3F3D56"/>
<path d="M129.392 33.4518C129.392 33.5747 129.39 33.6995 129.388 33.8225C129.386 33.9703 129.382 34.1163 129.376 34.2642C129.371 34.3928 129.365 34.5196 129.357 34.6463C129.334 35.0708 129.298 35.4933 129.249 35.9178C129.237 36.0253 129.224 36.1309 129.209 36.2385C129.197 36.3211 129.186 36.4056 129.173 36.4901C129.159 36.5842 129.146 36.6783 129.131 36.7724C129.1 36.9721 129.066 37.1719 129.028 37.3716C129.009 37.4715 128.99 37.5713 128.969 37.6712C128.929 37.869 128.885 38.0687 128.84 38.2666C128.836 38.2819 128.832 38.2992 128.828 38.3146C128.805 38.4125 128.783 38.5086 128.758 38.6065C128.75 38.6353 128.744 38.6622 128.735 38.691C128.718 38.764 128.699 38.837 128.68 38.9099C128.653 39.0117 128.626 39.1116 128.598 39.2134C128.552 39.3709 128.507 39.5264 128.459 39.6839C128.453 39.7003 128.448 39.7169 128.444 39.7338C128.352 40.0315 128.255 40.3254 128.149 40.6173C128.094 40.7709 128.035 40.9265 127.976 41.0801C127.917 41.2338 127.856 41.3874 127.793 41.5392C127.732 41.687 127.669 41.8349 127.606 41.9809C127.591 42.0154 127.576 42.05 127.559 42.0846C127.492 42.2363 127.424 42.3842 127.353 42.5321C127.351 42.534 127.351 42.5378 127.349 42.5397C127.294 42.6588 127.235 42.7779 127.176 42.895C127.176 42.8986 127.175 42.902 127.172 42.9046C127.115 43.0199 127.056 43.1351 126.995 43.2484L126.898 43.4347L126.887 43.4558C126.765 43.6844 126.64 43.911 126.506 44.1357C126.478 44.1856 126.449 44.2355 126.421 44.2836C126.392 44.3335 126.362 44.3834 126.331 44.4314C126.312 44.466 126.291 44.5006 126.268 44.5352C126.228 44.6005 126.188 44.6677 126.147 44.733C126.139 44.7464 126.129 44.7599 126.122 44.7733C126.05 44.8866 125.977 44.998 125.905 45.1113C125.815 45.2477 125.724 45.3821 125.631 45.5165L123.564 48.8544L123.474 48.7795L123.45 48.7565H123.448L123.366 48.6873L123.141 48.4953C123.073 48.5625 123.006 48.6297 122.938 48.695C122.911 48.7219 122.883 48.7469 122.856 48.7737C122.835 48.793 122.816 48.8122 122.795 48.8314C119.222 52.3526 114.469 54.3917 109.477 54.5449H109.471C105.692 54.6496 101.951 53.7587 98.6169 51.9599C98.5427 51.9215 98.4704 51.8831 98.3981 51.8389C97.9642 51.6007 97.5398 51.3492 97.1229 51.0803C97.121 51.0784 97.1191 51.0784 97.1172 51.0764C96.6338 50.7307 96.1618 50.362 95.7012 49.9702C93.2304 47.8685 91.2756 45.2178 89.9901 42.2259C88.7046 39.234 88.1234 35.9823 88.2921 32.7258C88.2978 32.5971 88.3055 32.4704 88.315 32.3417C88.3454 31.8769 88.3924 31.414 88.4558 30.9531C88.4729 30.8244 88.492 30.6958 88.511 30.569H129.197C129.277 31.1567 129.333 31.7476 129.363 32.3417C129.382 32.7124 129.392 33.0811 129.392 33.4518Z" fill="#F0F0F0"/>
<path d="M129.197 30.5691C128.465 25.6536 126.009 21.1664 122.276 17.9234C118.542 14.6804 113.78 12.8968 108.854 12.8968C103.928 12.8968 99.1659 14.6804 95.4327 17.9234C91.6996 21.1664 89.2435 25.6536 88.511 30.5691C88.492 30.6958 88.4729 30.8245 88.4558 30.9532C88.393 31.4141 88.3461 31.877 88.3149 32.3417H129.363C129.332 31.7483 129.277 31.1574 129.197 30.5691Z" fill="#1D8DAD"/>
<path d="M110.187 51.9593H98.399V42.4437C98.6165 38.0951 102.3 37.7439 105.761 37.9773C106.342 37.9773 106.917 38.0928 107.454 38.3172C107.992 38.5417 108.479 38.8707 108.89 39.2854C109.302 39.7002 109.628 40.1925 109.85 40.7345C110.072 41.2764 110.187 41.8572 110.187 42.4437V51.9593Z" fill="#1D8DAD"/>
<path d="M98.3981 45.1939V45.1958C98.3981 45.1978 98.4 45.1978 98.4019 45.1978L98.3981 45.1939ZM93.6572 30.5691C93.6496 30.6171 93.6401 30.6651 93.6325 30.7131C93.6401 30.6651 93.6496 30.6171 93.6591 30.5691H93.6572ZM93.4212 32.3417C93.4155 32.4147 93.4098 32.4877 93.406 32.5607C93.4098 32.4877 93.4155 32.4147 93.4231 32.3417C93.4228 32.3283 93.4235 32.3148 93.425 32.3014C93.4231 32.3148 93.4231 32.3283 93.4212 32.3417ZM98.3981 45.1958C98.3981 45.1978 98.4 45.1978 98.4019 45.1978L98.3981 45.1939V45.1958ZM93.6572 30.5691C93.6496 30.6171 93.6401 30.6651 93.6325 30.7131C93.6401 30.6651 93.6496 30.6171 93.6591 30.5691H93.6572ZM93.406 32.5607C93.4098 32.4877 93.4155 32.4147 93.4231 32.3417C93.4228 32.3283 93.4235 32.3148 93.425 32.3014C93.4231 32.3148 93.4231 32.3283 93.4212 32.3417C93.4155 32.4147 93.4098 32.4877 93.406 32.5607ZM152.203 67.8907C152.166 67.8511 152.127 67.8139 152.085 67.7793L152.083 67.7774L142.659 59.7515L142.415 59.5441L141.488 58.7547L141.256 58.5569L139.935 57.4315L139.574 57.1242L138.826 56.4866L138.443 56.1601L134.835 53.0892L132.766 51.3281L132.488 51.0919L126.392 45.9007C126.485 45.7662 126.577 45.6318 126.666 45.4954C126.738 45.3821 126.811 45.2707 126.883 45.1574C126.891 45.144 126.9 45.1305 126.908 45.1171C126.95 45.0518 126.99 44.9846 127.03 44.9193C127.052 44.8847 127.073 44.8501 127.092 44.8156C127.123 44.7676 127.153 44.7176 127.182 44.6677C127.21 44.6197 127.239 44.5698 127.268 44.5198C127.401 44.2951 127.526 44.0685 127.648 43.84L127.66 43.8188L127.757 43.6325C127.818 43.5192 127.877 43.404 127.934 43.2887C127.936 43.2861 127.937 43.2827 127.937 43.2792C127.996 43.162 128.055 43.0429 128.111 42.9239C128.113 42.9219 128.113 42.9181 128.114 42.9162C128.185 42.7683 128.253 42.6204 128.32 42.4687C128.337 42.4341 128.352 42.3996 128.368 42.365C128.43 42.219 128.493 42.0712 128.554 41.9233C128.617 41.7716 128.678 41.6179 128.737 41.4642C128.796 41.3106 128.855 41.1551 128.91 41.0014C129.015 40.7076 129.113 40.4131 129.205 40.118C129.209 40.1011 129.214 40.0844 129.22 40.068C129.268 39.9106 129.313 39.755 129.359 39.5975C129.388 39.4957 129.414 39.3958 129.441 39.2941C129.46 39.2211 129.479 39.1481 129.496 39.0751C129.506 39.0463 129.511 39.0194 129.519 38.9906C129.544 38.8927 129.567 38.7967 129.589 38.6987C129.593 38.6833 129.597 38.6661 129.601 38.6507C129.647 38.4529 129.69 38.2531 129.73 38.0553C129.751 37.9555 129.77 37.8556 129.789 37.7557C129.825 37.556 129.862 37.3563 129.892 37.1565C129.907 37.0624 129.921 36.9683 129.934 36.8742C129.947 36.7897 129.959 36.7052 129.97 36.6226C129.985 36.5151 129.999 36.4094 130.01 36.3019C130.06 35.8775 130.096 35.4549 130.119 35.0305C130.126 34.9037 130.132 34.777 130.138 34.6483C130.143 34.5004 130.147 34.3545 130.149 34.2066C130.151 34.0837 130.153 33.9588 130.153 33.8359C130.153 33.4653 130.143 33.0965 130.124 32.7258C130.094 32.1324 130.039 31.5415 129.959 30.9532C129.277 25.9242 126.824 21.3108 123.049 17.9563C119.274 14.6017 114.429 12.7301 109.399 12.6835C104.37 12.6369 99.4911 14.4184 95.6557 17.7024C91.8204 20.9864 89.2843 25.5536 88.511 30.5691C88.492 30.6958 88.4729 30.8245 88.4558 30.9532C88.393 31.4141 88.3461 31.877 88.315 32.3417C88.3055 32.4704 88.2979 32.5972 88.2921 32.7258C88.1234 35.9824 88.7046 39.2341 89.9901 42.226C91.2756 45.2179 93.2304 47.8686 95.7012 49.9703C96.1618 50.3621 96.6338 50.7308 97.1172 51.0765C97.1191 51.0784 97.121 51.0784 97.1229 51.0803C97.2847 51.1956 97.4465 51.3089 97.6101 51.4203C97.8709 51.5931 98.1335 51.7621 98.398 51.9235C98.419 51.935 98.44 51.9484 98.4609 51.96C98.6892 52.0982 98.9196 52.2307 99.1498 52.3594H99.1517C100.009 52.835 100.899 53.2483 101.814 53.5962C104.501 54.6161 107.365 55.0697 110.232 54.9291H110.238C113.584 54.7658 116.842 53.7929 119.737 52.0925C120.157 51.8466 120.572 51.5835 120.978 51.3031C121.078 51.234 121.181 51.1629 121.28 51.0919C121.402 51.0054 121.524 50.9152 121.646 50.8249C121.647 50.8249 121.647 50.823 121.649 50.823C121.658 50.8153 121.668 50.8083 121.678 50.8019C121.76 50.7385 121.843 50.6751 121.923 50.6137C121.944 50.5983 121.965 50.5829 121.986 50.5656C121.992 50.5617 121.997 50.5572 122.001 50.5522C122.049 50.5176 122.095 50.4792 122.142 50.4427C122.19 50.4062 122.236 50.3678 122.283 50.3294C122.291 50.3243 122.299 50.3185 122.306 50.3121C122.359 50.2679 122.413 50.2257 122.466 50.1815C122.521 50.1374 122.574 50.0913 122.626 50.0471C122.679 50.0029 122.73 49.9587 122.784 49.9127C122.829 49.8742 122.877 49.8339 122.923 49.7917C122.938 49.7801 122.951 49.7667 122.966 49.7532C122.972 49.7476 122.979 49.7424 122.985 49.7379C123.048 49.6841 123.109 49.6284 123.17 49.5727C123.185 49.5593 123.199 49.5458 123.214 49.5324C123.307 49.4479 123.4 49.3634 123.492 49.275C123.513 49.2558 123.535 49.2347 123.556 49.2155C123.577 49.1963 123.596 49.1771 123.617 49.1579C123.644 49.131 123.672 49.106 123.699 49.0791C123.768 49.0138 123.834 48.9466 123.903 48.8794L124.127 49.0715L124.209 49.1406H124.211L124.236 49.1636L124.325 49.2385L125.654 50.3717L125.682 50.3966L125.705 50.4139L125.855 50.5426L126.156 50.7999L126.457 51.0554L126.501 51.0919L127.899 52.2826L128.094 52.4478L129.443 53.5963L136.428 59.5441L136.671 59.7516L146.231 67.8908L148.682 69.9784L149.594 70.7543C149.787 70.9195 150.011 71.0446 150.253 71.1225C150.494 71.2003 150.748 71.2294 151.001 71.208C151.254 71.1866 151.5 71.1151 151.725 70.9977C151.95 70.8803 152.15 70.7193 152.314 70.5238C152.45 70.3616 152.559 70.1772 152.635 69.9784C152.773 69.6259 152.806 69.2403 152.729 68.8692C152.653 68.4981 152.47 68.1579 152.203 67.8907ZM97.0734 23.3709C98.9828 21.0877 101.493 19.3961 104.315 18.4916C107.136 17.5871 110.154 17.5066 113.019 18.2594C115.884 19.0121 118.48 20.5675 120.506 22.7457C122.532 24.9239 123.906 27.6362 124.47 30.5691C124.495 30.6978 124.517 30.8245 124.538 30.9532C124.616 31.4122 124.674 31.877 124.708 32.3417C124.717 32.4704 124.727 32.5972 124.733 32.7258C124.75 33.0139 124.757 33.3039 124.757 33.592C124.758 35.3395 124.471 37.075 123.908 38.7275V38.7294C123.279 40.5823 122.313 42.3005 121.059 43.7958C121.033 43.8265 121.006 43.8592 120.978 43.8899C120.726 44.1895 120.462 44.4776 120.19 44.7522C120.188 44.7541 120.186 44.758 120.184 44.7599C120.091 44.854 119.995 44.95 119.9 45.0384C119.706 45.2285 119.508 45.409 119.307 45.5819C119.004 45.8488 118.694 46.0991 118.376 46.3328C118.269 46.4115 118.163 46.4884 118.054 46.5652C117.948 46.642 117.839 46.715 117.731 46.788C117.514 46.9339 117.293 47.0741 117.07 47.2067C116.96 47.2738 116.846 47.3392 116.733 47.4025C116.621 47.4678 116.507 47.5293 116.393 47.5888C116.279 47.6503 116.164 47.7098 116.048 47.7674C115.818 47.8846 115.586 47.994 115.35 48.0958C115.232 48.1496 115.114 48.1996 114.996 48.2456C114.922 48.2764 114.849 48.3071 114.775 48.334C114.746 48.3475 114.716 48.3591 114.686 48.3686C114.646 48.3858 114.606 48.4012 114.566 48.4147C114.553 48.4206 114.539 48.4257 114.526 48.43C114.444 48.4627 114.364 48.4915 114.28 48.5203C114.16 48.5645 114.04 48.6048 113.919 48.6432C113.797 48.6835 113.677 48.7219 113.555 48.7565C113.433 48.7949 113.31 48.8295 113.188 48.8621C113.064 48.8967 112.942 48.9294 112.819 48.9582C112.687 48.9927 112.556 49.0235 112.423 49.0523C112.307 49.0792 112.192 49.1022 112.076 49.1234C111.968 49.1464 111.857 49.1656 111.749 49.1848C111.597 49.2117 111.444 49.2367 111.29 49.2578C111.207 49.2712 111.125 49.2828 111.041 49.2904C111.005 49.2962 110.971 49.3 110.936 49.3039C110.83 49.3193 110.723 49.3308 110.618 49.3404C110.59 49.3423 110.563 49.3461 110.537 49.348C110.421 49.3596 110.303 49.3692 110.186 49.3788C109.937 49.3961 109.69 49.4076 109.44 49.4133C109.315 49.4153 109.187 49.4172 109.062 49.4172C108.936 49.4172 108.81 49.4153 108.685 49.4114C108.685 49.4114 108.685 49.4133 108.683 49.4114C108.681 49.4133 108.681 49.4133 108.679 49.4114C108.679 49.4117 108.679 49.4119 108.678 49.412C108.678 49.4122 108.678 49.4122 108.677 49.4122C108.677 49.4122 108.676 49.4122 108.676 49.412C108.676 49.4119 108.676 49.4117 108.675 49.4114C108.669 49.4133 108.662 49.4133 108.656 49.4114C108.567 49.4114 108.477 49.4076 108.39 49.4018C108.325 49.3999 108.258 49.398 108.192 49.3922C108.102 49.3884 108.013 49.3826 107.924 49.3749C107.895 49.3749 107.866 49.3711 107.838 49.3692C107.824 49.3689 107.811 49.3676 107.798 49.3653C107.707 49.3577 107.613 49.35 107.522 49.3404C107.476 49.3365 107.429 49.3327 107.383 49.3269C107.244 49.3116 107.105 49.2943 106.968 49.2751C106.812 49.2559 106.656 49.2328 106.502 49.204C106.43 49.1944 106.359 49.181 106.289 49.1675C106.195 49.1521 106.102 49.1349 106.009 49.1157C105.912 49.0965 105.815 49.0773 105.718 49.0542C105.64 49.0369 105.56 49.0196 105.482 49.0004C105.444 48.9928 105.406 48.9832 105.369 48.9736C105.17 48.9255 104.972 48.8737 104.776 48.8161C104.652 48.7815 104.528 48.745 104.406 48.7066C104.239 48.6547 104.073 48.5991 103.908 48.5395C103.843 48.5184 103.78 48.4953 103.716 48.4704C103.651 48.4492 103.588 48.4243 103.523 48.3993C103.464 48.3782 103.405 48.3551 103.348 48.3321C103.253 48.2956 103.16 48.2572 103.067 48.2188C102.874 48.14 102.686 48.0575 102.497 47.9691C102.391 47.9173 102.284 47.8673 102.18 47.8155C101.767 47.6138 101.36 47.3898 100.96 47.1433C100.861 47.0838 100.762 47.0204 100.663 46.957C100.539 46.8802 100.419 46.7995 100.299 46.7189C100.233 46.6728 100.168 46.6286 100.103 46.5825C99.9834 46.498 99.8654 46.4116 99.7493 46.3251C99.6884 46.281 99.6275 46.2349 99.5685 46.1888C99.3572 46.0274 99.1498 45.8584 98.9462 45.6856C98.8491 45.603 98.752 45.5185 98.6569 45.4321C98.6169 45.3975 98.5769 45.361 98.5369 45.3245C98.4913 45.2823 98.4456 45.2419 98.4019 45.1978L98.3981 45.1939C98.3315 45.1344 98.2648 45.071 98.2001 45.0077C98.0992 44.9116 98.0003 44.8137 97.9051 44.7138C97.8062 44.6159 97.711 44.5141 97.6177 44.4142C97.5226 44.3144 97.4312 44.2126 97.3418 44.1088C97.2504 44.0071 97.161 43.9034 97.0734 43.7977C96.9878 43.6979 96.904 43.5942 96.8241 43.4924C96.63 43.2504 96.4447 43.0039 96.2684 42.753C96.1865 42.6377 96.1085 42.5225 96.0324 42.4053C95.9505 42.2863 95.8725 42.1653 95.7983 42.0443C95.7202 41.9233 95.646 41.8004 95.5737 41.6755C95.5718 41.6713 95.5693 41.6674 95.5661 41.664C95.4234 41.4201 95.2863 41.1743 95.1588 40.9246C95.0275 40.6711 94.9038 40.415 94.7877 40.1564C94.7287 40.0277 94.6716 39.8971 94.6183 39.7665C94.5079 39.5034 94.4051 39.2403 94.31 38.9733C94.2624 38.8447 94.2186 38.716 94.1748 38.5854C94.1734 38.5768 94.1709 38.5684 94.1672 38.5604C94.0797 38.2954 93.9998 38.0285 93.9293 37.7596C93.9274 37.7557 93.9274 37.7519 93.9255 37.7481C93.8894 37.6155 93.8551 37.483 93.8247 37.3486C93.7942 37.2314 93.7676 37.1143 93.7428 36.9952C93.7143 36.8627 93.6858 36.7302 93.661 36.5957C93.6477 36.5266 93.6344 36.4575 93.6229 36.3883C93.6115 36.3307 93.602 36.2712 93.5925 36.2136C93.583 36.1559 93.5734 36.0964 93.5639 36.0369C93.5449 35.9197 93.5277 35.8026 93.5125 35.6854C93.4935 35.5471 93.4783 35.4088 93.4631 35.2686C93.4459 35.1016 93.4307 34.9345 93.4174 34.7655C93.4079 34.6521 93.4021 34.5369 93.3965 34.4217C93.3907 34.3161 93.385 34.2104 93.3831 34.1048C93.3812 34.0992 93.3812 34.0931 93.3831 34.0875C93.3829 34.0873 93.3827 34.087 93.3825 34.0867C93.3824 34.0863 93.3823 34.086 93.3823 34.0856C93.3823 34.0852 93.3824 34.0849 93.3825 34.0846C93.3827 34.0842 93.3829 34.0839 93.3831 34.0837C93.3812 34.0818 93.3812 34.0818 93.3831 34.0798C93.3829 34.0796 93.3827 34.0793 93.3825 34.079C93.3824 34.0786 93.3823 34.0783 93.3823 34.0779C93.3823 34.0776 93.3824 34.0772 93.3825 34.0769C93.3827 34.0765 93.3829 34.0762 93.3831 34.076C93.3812 34.0337 93.3793 33.9915 93.3793 33.9493C93.3755 33.8244 93.3736 33.6996 93.3736 33.5748C93.3736 33.4614 93.3755 33.35 93.3774 33.2367C93.3812 33.0793 93.3869 32.9218 93.3945 32.7643C93.3945 32.7297 93.3983 32.6971 93.4003 32.6625C93.4021 32.6279 93.4041 32.5952 93.406 32.5607C93.4098 32.4877 93.4155 32.4147 93.4231 32.3417C93.4228 32.3283 93.4235 32.3148 93.425 32.3014C93.4307 32.2188 93.4383 32.1363 93.4459 32.0537C93.4612 31.8885 93.4802 31.7214 93.5011 31.5563C93.5125 31.4737 93.5221 31.3911 93.5354 31.3085C93.543 31.2509 93.5525 31.1914 93.562 31.1318C93.5696 31.0723 93.5792 31.0128 93.5906 30.9532C93.6039 30.8745 93.6173 30.7938 93.6325 30.7131C93.6401 30.6651 93.6496 30.6171 93.6591 30.5691C93.6953 30.377 93.7352 30.185 93.779 29.993C93.8227 29.799 93.8723 29.6069 93.9255 29.4149C93.9769 29.2209 94.034 29.0269 94.0949 28.833C94.1234 28.735 94.1539 28.639 94.1882 28.543C94.2509 28.349 94.3176 28.1569 94.3918 27.9668C94.4261 27.8727 94.4622 27.7767 94.5022 27.6826C94.5783 27.4924 94.6583 27.3023 94.7401 27.116C94.782 27.0219 94.8239 26.9278 94.8695 26.8337C94.9552 26.6474 95.0446 26.4611 95.1417 26.2787C95.2349 26.0924 95.3358 25.9099 95.4386 25.7294C95.5414 25.5489 95.6479 25.3683 95.7602 25.1897C95.8116 25.1014 95.8687 25.0111 95.9277 24.9247C96.0419 24.748 96.1618 24.5713 96.2836 24.3985C96.5292 24.0489 96.7937 23.7051 97.0734 23.3709ZM93.4212 32.3417C93.4155 32.4147 93.4098 32.4877 93.406 32.5607C93.4098 32.4877 93.4155 32.4147 93.4231 32.3417C93.4228 32.3283 93.4235 32.3148 93.425 32.3014C93.4231 32.3148 93.4231 32.3283 93.4212 32.3417ZM93.6572 30.5691C93.6496 30.6171 93.6401 30.6651 93.6325 30.7131C93.6401 30.6651 93.6496 30.6171 93.6591 30.5691H93.6572ZM98.3981 45.1939V45.1958C98.3981 45.1978 98.4 45.1978 98.4019 45.1978L98.3981 45.1939Z" fill="#3F3D56"/>
<path opacity="0.3" d="M98.9464 45.6854C95.9361 43.1219 93.9911 39.5098 93.4979 35.5662C93.0046 31.6227 93.999 27.6361 96.2836 24.3982C95.9836 24.7031 95.6935 25.0224 95.4135 25.3562C94.0845 26.9454 93.0788 28.7833 92.4538 30.7648C91.8287 32.7463 91.5965 34.8326 91.7705 36.9046C91.9444 38.9767 92.5211 40.9939 93.4676 42.841C94.4141 44.6881 95.7119 46.3291 97.2868 47.6701C100.468 50.3784 104.584 51.7008 108.731 51.3462C112.878 50.9917 116.715 48.9894 119.399 45.7797C119.679 45.4455 119.942 45.1033 120.189 44.753C117.41 47.5703 113.683 49.2301 109.748 49.4028C105.813 49.5756 101.957 48.2486 98.9464 45.6854Z" fill="black"/>
</g>
<defs>
<clipPath id="clip0_711_2107">
<rect width="173" height="87" fill="white"/>
</clipPath>
</defs>
</svg>
