<svg width="89" height="15" viewBox="0 0 89 15" fill="none" xmlns="http://www.w3.org/2000/svg">
<g clip-path="url(#clip0_1547_20)">
<path d="M39.9162 0.351858C39.2719 -0.118113 37.0336 0.505189 36.6272 1.25806C34.5288 -0.37112 32.0845 -0.316679 30.2814 1.39991C28.3292 3.25833 28.0968 6.5305 29.767 8.65495C31.4503 10.7955 33.942 11.1014 36.7445 9.51209C36.9139 11.2494 36.1018 12.22 34.4083 12.3036C33.3879 12.3534 32.3969 12.1901 31.5856 11.5813C30.9382 11.096 30.5931 11.2386 30.2589 11.8727C30.0981 12.1893 29.8947 12.483 29.6543 12.7459C28.9999 13.4359 29.3675 13.7825 30.0429 14.1068C32.128 15.1035 34.3057 15.243 36.5044 14.6588C38.6735 14.0815 40.0133 12.4048 40.0639 10.2036C40.1323 7.1653 40.0934 4.12466 40.0949 1.08556C40.0988 0.827193 40.1727 0.53586 39.9162 0.351858ZM34.5078 7.7472C33.0972 7.76867 31.9967 6.75053 31.9555 5.38891C31.9438 5.06019 31.9985 4.73245 32.1165 4.42482C32.2345 4.11719 32.4135 3.83581 32.6429 3.5971C32.8723 3.35838 33.1475 3.16712 33.4526 3.03444C33.7577 2.90177 34.0866 2.83034 34.4199 2.82434C34.7533 2.81833 35.0846 2.87786 35.3944 2.99946C35.7042 3.12106 35.9864 3.30229 36.2245 3.53258C36.4625 3.76287 36.6517 4.03762 36.7811 4.3408C36.9104 4.64398 36.9772 4.96952 36.9777 5.29845C36.9901 6.65546 35.9137 7.72268 34.5078 7.74414V7.7472Z" fill="#EC1F3C"/>
<path d="M52.9814 1.66375C51.1939 -0.308138 48.5437 -0.450735 45.923 1.28502C45.4653 -0.420835 44.0446 0.364999 43.0544 0.347366C42.0441 0.329732 42.5508 1.29039 42.5446 1.78412C42.4972 5.3944 42.519 9.00543 42.519 12.6165C42.519 14.7762 42.519 14.7363 44.7394 14.7402C45.5647 14.7402 45.8469 14.5301 45.7995 13.7067C45.728 12.4884 45.7808 11.2625 45.7808 9.87331C48.5561 11.5792 51.3866 11.3147 53.0739 9.34354C54.8972 7.21142 54.8552 3.72534 52.9814 1.66375ZM48.4279 8.26636C46.8595 8.27326 45.7256 7.15468 45.7132 5.58989C45.7007 4.02511 46.8145 2.8682 48.3743 2.8498C49.9076 2.83216 51.1092 4.00441 51.1278 5.53776C51.1358 5.89276 51.0719 6.24574 50.9398 6.57607C50.8078 6.9064 50.6103 7.20742 50.3589 7.46152C50.1074 7.71561 49.8071 7.91768 49.4756 8.05588C49.144 8.19408 48.7878 8.26563 48.4279 8.26636Z" fill="#EC1F3C"/>
<path d="M67.6935 1.23675C67.6935 0.941584 67.8031 0.599646 67.5055 0.373476C66.8309 -0.139429 64.6011 0.48388 64.2413 1.27662C61.6478 -0.460664 59.0194 -0.304264 57.1985 1.69599C55.3153 3.76601 55.3332 7.40542 57.2404 9.46854C59.0326 11.4075 61.7745 11.5386 64.4511 9.69855C64.1558 10.9528 64.912 10.9375 65.7273 10.8731C66.0873 10.839 66.4498 10.839 66.8099 10.8731C67.556 10.9567 67.7161 10.6063 67.7099 9.95308C67.6827 7.04815 67.7005 4.14245 67.6935 1.23675ZM61.846 8.26409C60.259 8.29322 59.0645 7.09722 59.0932 5.50867C59.1204 3.97531 60.3111 2.81917 61.825 2.84677C63.367 2.87514 64.4985 4.01901 64.5048 5.5539C64.511 7.08878 63.3841 8.23572 61.846 8.26409Z" fill="#EC1F3D"/>
<path d="M19.7218 1.47206C20.7936 0.446252 21.8715 0.0153833 23.171 0.0659838C25.2111 0.151851 26.659 1.30416 26.7818 3.27682C26.9232 5.55615 26.8463 7.84773 26.8867 10.134C26.8968 10.7174 26.6294 10.8485 26.0737 10.8853C23.6528 11.0463 23.6598 11.0647 23.652 8.66654C23.6474 7.34786 23.652 6.02688 23.5937 4.7105C23.5401 3.57812 22.9316 2.92722 21.7067 2.92185C20.4967 2.91572 19.7638 3.51372 19.7071 4.76187C19.6293 6.43015 19.6293 8.10457 19.6814 9.77362C19.7086 10.6315 19.4482 11.0087 18.5428 10.8822C18.2294 10.8382 17.9112 10.8382 17.5978 10.8822C16.6411 11.0195 16.3768 10.6338 16.3955 9.71689C16.4538 6.94689 16.4623 4.17459 16.3955 1.40536C16.3706 0.427852 16.7359 0.157985 17.6304 0.295986C18.4325 0.417121 19.5749 -0.172455 19.7218 1.47206Z" fill="#EC1F3D"/>
<path d="M4.90245 11.0202C3.16856 11.0118 1.8147 10.768 0.550224 10.1002C-0.0660824 9.77439 -0.162453 9.48688 0.254118 8.88274C0.928713 7.90293 1.45098 6.96606 2.85224 8.07007C3.47399 8.55767 4.36464 8.60674 5.19312 8.50094C5.56539 8.45341 5.92912 8.31311 5.9773 7.89833C6.02549 7.48356 5.74415 7.24819 5.36255 7.14469C4.49676 6.91468 3.62554 6.69925 2.75898 6.46925C0.932599 5.98318 0.0979043 5.04553 0.0800291 3.46925C0.0613767 1.85923 0.972235 0.71612 2.73955 0.278349C4.55272 -0.170156 6.30916 0.062911 8.00808 0.831886C8.66869 1.13089 8.78527 1.46822 8.31041 2.01716C8.08585 2.29048 7.8817 2.57951 7.69954 2.88197C7.38167 3.38185 7.10344 3.68545 6.45605 3.18021C5.85839 2.71331 5.07965 2.52241 4.29858 2.52931C3.84082 2.52931 3.32244 2.64814 3.23617 3.16181C3.14446 3.70922 3.63953 3.89859 4.08408 4.01282C4.82396 4.20372 5.57627 4.34862 6.31926 4.53033C8.40211 5.04093 9.28266 6.04605 9.17541 7.7726C9.06816 9.49915 7.75938 10.7297 5.79855 10.9489C5.39674 10.9972 4.99494 11.0141 4.90245 11.0202Z" fill="#EC1F3D"/>
<path d="M73.9646 11.0455C72.5875 11.0079 71.2865 10.7281 70.0632 10.0872C69.4298 9.75597 69.3256 9.41786 69.8098 8.88119C70.0672 8.57517 70.2959 8.2467 70.493 7.89984C70.7766 7.43984 71.0549 7.32791 71.567 7.67444C72.3454 8.21706 73.2735 8.51139 74.2266 8.51779C74.783 8.51779 75.4568 8.50935 75.5346 7.87071C75.6123 7.20447 74.8957 7.1094 74.3937 6.97063C73.6165 6.75443 72.8105 6.62716 72.0326 6.40713C70.4782 5.96782 69.6676 4.99951 69.6171 3.60033C69.5611 2.03785 70.3305 0.857168 71.8779 0.380296C73.8092 -0.217711 75.7063 0.00232683 77.5405 0.832636C78.1723 1.11861 78.3355 1.45365 77.8374 2.00489C77.5952 2.26619 77.3905 2.55896 77.2288 2.87506C76.876 3.59343 76.4835 3.5206 75.8804 3.11273C75.2758 2.71273 74.5594 2.50951 73.8317 2.53159C73.3755 2.54156 72.8517 2.64122 72.7701 3.16103C72.6854 3.6977 73.1626 3.9024 73.6157 4.01587C74.3579 4.20141 75.1094 4.35014 75.8524 4.53338C77.9601 5.05395 78.7972 6.01996 78.6891 7.78638C78.5827 9.52443 77.298 10.735 75.3138 10.9527C74.8638 11.0026 74.4146 11.0156 73.9646 11.0455Z" fill="#EC1F3C"/>
<path d="M84.2141 11.057C82.8331 11.0026 81.5344 10.7082 80.3189 10.0542C79.7531 9.74754 79.7072 9.47767 80.0694 8.93103C80.7246 7.94125 81.222 6.96604 82.6644 8.06009C83.3305 8.56609 84.2677 8.63739 85.1405 8.47792C85.4941 8.41352 85.8625 8.26096 85.8672 7.82165C85.8672 7.46668 85.6068 7.26428 85.2859 7.17611C84.3773 6.92541 83.4602 6.7046 82.5509 6.45773C80.7409 5.96629 79.9326 5.01869 79.9365 3.41097C79.9365 1.83008 80.8007 0.742172 82.5113 0.296733C84.3711 -0.187039 86.1734 0.0490953 87.9073 0.860238C88.4676 1.12244 88.5819 1.36855 88.2112 1.94508C87.5311 3.0054 87.0058 3.90164 85.5019 2.8375C84.8607 2.38362 83.4906 2.03862 83.1704 3.11426C82.8595 4.17611 84.2421 3.96527 84.9081 4.24434C85.355 4.43141 85.8757 4.44675 86.3545 4.57171C88.2656 5.07082 89.0653 6.0284 88.9969 7.71508C88.9301 9.3251 87.8063 10.5847 86.1011 10.8991C85.4825 11.0087 84.8429 11.0087 84.2141 11.057Z" fill="#EC1F3C"/>
<path d="M12.4 10.8945C10.2658 10.8945 10.2814 10.8945 10.6031 8.85669C10.7873 7.69057 10.9311 6.51756 11.0531 5.34378C11.1161 4.73657 11.1308 4.14623 12.0207 4.35247C12.6712 4.5058 13.7049 3.81579 13.7748 5.24641C13.8448 6.67702 14.0771 8.11531 14.3243 9.53979C14.5054 10.5832 14.2707 11.1184 13.073 10.9037C12.8562 10.8608 12.6246 10.8945 12.4 10.8945Z" fill="#060606"/>
<path d="M14.3087 1.76727C14.3165 2.00937 14.2757 2.25061 14.1887 2.47713C14.1018 2.70366 13.9703 2.91102 13.8019 3.08731C13.6336 3.26361 13.4315 3.40537 13.2075 3.50447C12.9834 3.60357 12.7417 3.65805 12.4963 3.66479C12.2394 3.6809 11.982 3.6444 11.7401 3.55756C11.4982 3.47073 11.2772 3.33546 11.0909 3.16025C10.9046 2.98505 10.757 2.77369 10.6576 2.5395C10.5581 2.30531 10.5089 2.05335 10.5129 1.79947C10.5168 0.753726 11.2987 0.0092869 12.4007 8.68031e-05C13.5028 -0.0091133 14.2854 0.713856 14.3087 1.76727Z" fill="#060606"/>
</g>
<defs>
<clipPath id="clip0_1547_20">
<rect width="89" height="15" fill="white"/>
</clipPath>
</defs>
</svg>
