<svg width="18" height="18" viewBox="0 0 18 18" fill="none" xmlns="http://www.w3.org/2000/svg">
<g clip-path="url(#clip0_771_1010)">
<path d="M10.875 5.25H16.875C17.4963 5.25 18 4.74632 18 4.125C18 3.50368 17.4963 3 16.875 3H10.875C10.2537 3 9.75 3.50368 9.75 4.125C9.75 4.74632 10.2537 5.25 10.875 5.25Z" fill="#1D8DAD"/>
<path d="M4.12499 0C1.84683 0 0 1.84683 0 4.12499C0 6.40315 1.84683 8.24998 4.12499 8.24998C6.40315 8.24998 8.24998 6.40315 8.24998 4.12499C8.24752 1.84785 6.40216 0.00249609 4.12499 0ZM4.12499 6.00001C3.08946 6.00001 2.25 5.16055 2.25 4.12499C2.25 3.08943 3.08946 2.25 4.12499 2.25C5.16052 2.25 5.99998 3.08946 5.99998 4.12499C5.99998 5.16052 5.16055 6.00001 4.12499 6.00001Z" fill="#1D8DAD"/>
<path d="M4.12499 9.75C1.84683 9.75 0 11.5968 0 13.875C0 16.1532 1.84683 18 4.12499 18C6.40315 18 8.24998 16.1532 8.24998 13.875C8.24752 11.5979 6.40216 9.7525 4.12499 9.75ZM4.12499 15.75C3.08946 15.75 2.25 14.9106 2.25 13.875C2.25 12.8395 3.08946 12 4.12499 12C5.16052 12 5.99998 12.8395 5.99998 13.875C5.99998 14.9106 5.16055 15.75 4.12499 15.75Z" fill="#1D8DAD"/>
<path d="M13.875 9.75C11.5968 9.75 9.75 11.5968 9.75 13.875C9.75 16.1531 11.5968 18 13.875 18C16.1532 18 18 16.1532 18 13.875C17.9975 11.5979 16.1521 9.7525 13.875 9.75ZM13.875 15.75C12.8395 15.75 12 14.9106 12 13.875C12 12.8395 12.8395 12 13.875 12C14.9105 12 15.75 12.8395 15.75 13.875C15.75 14.9106 14.9105 15.75 13.875 15.75Z" fill="#1D8DAD"/>
</g>
<defs>
<clipPath id="clip0_771_1010">
<rect width="18" height="18" fill="white"/>
</clipPath>
</defs>
</svg>
